<?xml version="1.0" encoding="UTF-8"?>
<svg width="640" height="672" version="1.1" viewBox="0 0 169.33 177.8" xmlns="http://www.w3.org/2000/svg">
 <g>
  <g transform="translate(-23.262 -107.83)">
   <path d="m102.32 113.61-8.1334 8.91-28.262-0.49454-1.5978-5.8896-32.846 8.9111 3.744 13.8-9.4687 4.671 5.655 11.462h-3.0716v19.116h4.0964l-2.511 7.7902 4.9258 1.5875-4.5046 7.9117-3.0179-0.0672-0.12454 5.5872-2.0076 3.5259 1.9048 1.0847-0.67386 30.218 7.3675 0.16433-10.261 10.817 10.634 10.087v11.545h5.6632l1.0955 4.0199 7.6078-2.0733-2.1048 6.2265 14.656 4.9547 2.9843-8.8268h21.533v-2.113l26.833 6.7851 2.4913-9.8537 0.16588 3.7879 34.319-1.5022-2.1999 2.9652 3.0686 2.2764 2.2267-3.0019 0.87591 2.4097 11.878-4.3181 2.9249 4.3811 11.606-7.7473-4.2251-6.3288 6.3195-2.7807-4.4907-10.205h2.3823v-32.017h-4.7155l3.454-28.72-4.2757-0.64079 3.5259-2.7771h4.5641v-24.769h-3.0665l5.5769-9.3359-4.085-2.4407 3.4163-14.793-15.968-3.6876-1.0847-3.2039-5.1873 1.7554-10.921-2.5218-0.47956 2.0774-35.2 3.159z" stop-color="#000000"/>
  </g>
  <g transform="translate(-15.48 -84.796)" fill="#808080">
   <rect transform="rotate(-15.18)" x="-.081038" y="103.12" width="34.033" height="25.043" stop-color="#000000"/>
   <rect transform="rotate(42.389)" x="131.6" y="-.83412" width="28.798" height="19.032" stop-color="#000000"/>
   <rect transform="rotate(1.0029)" x="57.935" y="95.432" width="38.948" height="21.963" stop-color="#000000"/>
   <rect transform="rotate(71.301)" x="142.59" y="-123.36" width="23.007" height="23.6" stop-color="#000000"/>
   <rect transform="rotate(-5.1283)" x="92.953" y="109.49" width="49.021" height="25.031" stop-color="#000000"/>
   <rect transform="rotate(13.004)" x="164.02" y="59.363" width="34.033" height="22.188" stop-color="#000000"/>
   <rect transform="rotate(-59.146)" x="-31.255" y="206.66" width="21.008" height="9.4649" stop-color="#000000"/>
   <rect x="159.31" y="128.98" width="18.468" height="24.768" stop-color="#000000"/>
   <rect transform="rotate(-38.225)" x="20.207" y="211.99" width="21.595" height="15.959" stop-color="#000000"/>
   <rect transform="matrix(.98896 .1482 -.11942 .99284 0 0)" x="163.57" y="129.7" width="27.995" height="38.594" stop-color="#000000"/>
   <rect transform="rotate(-2.5071)" x="99.856" y="213.62" width="38.355" height="32.733" stop-color="#000000"/>
   <rect transform="rotate(-46.514)" x="-144.54" y="163.25" width="22.326" height="17.443" stop-color="#000000"/>
   <rect transform="rotate(-53.434)" x="-110.35" y="259.47" width="11.058" height="3.8207" stop-color="#000000"/>
   <rect transform="rotate(74.757)" x="231.7" y="15.789" width="12.177" height="12.975" stop-color="#000000"/>
   <rect x="161.42" y="185.88" width="13.798" height="32.017" stop-color="#000000"/>
   <rect transform="rotate(14.19)" x="133.66" y="179.88" width="31.68" height="33.93" stop-color="#000000"/>
   <rect transform="rotate(1.2774)" x="26.462" y="165.26" width="25.404" height="40.426" stop-color="#000000"/>
   <rect transform="rotate(18.679)" x="118.78" y="186.57" width="15.471" height="34.024" stop-color="#000000"/>
   <rect transform="rotate(17.864)" x="72.117" y="125.96" width="33.484" height="15.103" stop-color="#000000"/>
   <rect x="59.321" y="219.82" width="21.725" height="23.325" stop-color="#000000"/>
   <rect transform="rotate(-19.98)" x="56.19" y="261.37" width="14.062" height="19.639" stop-color="#000000"/>
   <rect transform="rotate(236.28)" x="-294.58" y=".091506" width="30.764" height="13.954" stop-color="#000000"/>
   <rect transform="rotate(-23.751)" x="49.911" y="258.33" width="20.528" height="21.88" stop-color="#000000"/>
   <rect x="29.611" y="223.97" width="18.429" height="14.873" stop-color="#000000"/>
   <rect transform="rotate(29.656)" x="104.49" y="115.01" width="22.938" height="26.786" stop-color="#000000"/>
   <rect x="23.782" y="129.48" width="20.892" height="19.116" stop-color="#000000"/>
   <rect transform="rotate(-26.26)" x="-33.204" y="115.21" width="20.825" height="30.291" stop-color="#000000"/>
   <rect x="35.929" y="107.65" width="133.14" height="126.88" stop-color="#000000"/>
  </g>
  <g transform="translate(-24.877 -89.109)" fill="#727272">
   <path d="m144.32 143.91-6.6438-13.751-13.248 5.9836 7.0902-25.597 17.27-5.1984 18.7 17.663-7.8222 17.516z" stop-color="#000000"/>
   <path d="m42.136 127.65 24.325-20.254 20.572 4.8883-8.8702 15.123-12.761-2.751-1.0189 13.154-8.3335 12.928-16.408-4.8922z" stop-color="#000000"/>
   <path d="m41.068 207.85 6.6688-18.663-3.7607-18.756 25.2 0.44066 16.045 37.208-6.1844 13.945-17.849 5.3884-22.39 1.6369 3.5076-21.716z" stop-color="#000000"/>
   <path d="m107.31 160.52-10.952-11.976-10.579 1.244 9.4304-16.777 16.989-2.8633 13.773 20.016-12.889 10.253-5.464-0.98837z" stop-color="#000000"/>
   <path d="m117.23 213.87 22.719-16.226 4.3268-22.031 12.68 0.13413 4.3268 27.772-2.6542 24.597-15.727 6.3418-16.66-5.9371z" stop-color="#000000"/>
  </g>
  <g transform="translate(-21.691 -86.07)">
   <g fill="#666">
    <path d="m95.916 220.97-4.2764-1.3391-3.5274 2.7636-0.04794-4.4808-3.7184-2.5008 4.2467-1.4302 1.2293-4.3092 2.6726 3.5969 4.4782-0.16245-2.595 3.6533z" stop-color="#000000"/>
    <path d="m76.691 209.91-1.9892-1.8021-2.6122 0.617 1.0992-2.4487-1.394-2.2937 2.6685 0.28871 1.7506-2.0346 0.55003 2.6271 2.476 1.0362-2.3286 1.3349z" stop-color="#000000"/>
    <path d="m76.11 182.77-2.3739-0.95381-2.1315 1.4148 0.17357-2.5524-2.0042-1.59 2.4811-0.62367 0.89283-2.3975 1.3599 2.167 2.556 0.10827-1.6407 1.9629z" stop-color="#000000"/>
    <path d="m92.914 186.46-2.4467-0.55579-1.8449 1.7004-0.22748-2.4987-2.1873-1.2292 2.3061-0.98848 0.49307-2.4601 1.6527 1.8878 2.4921-0.29128-1.2847 2.1552z" stop-color="#000000"/>
    <path d="m116.93 177.64-0.63859 0.0459-0.32419 0.5521-0.24102-0.59314-0.62526-0.13772 0.48963-0.41251-0.0622-0.63721 0.54363 0.33819 0.58679-0.25611-0.15365 0.62153z" stop-color="#000000"/>
    <path d="m98.925 160.06-0.48117-0.41351-0.61342 0.16196 0.24458-0.5854-0.34358-0.53335 0.63233 0.0517 0.40107-0.49159 0.14622 0.61736 0.59146 0.22954-0.54196 0.32984z" stop-color="#000000"/>
    <path d="m95.198 139.23-2.0247-0.59467-1.6377 1.3308-0.06011-2.1094-1.7717-1.1463 1.9876-0.709 0.54273-2.0392 1.2885 1.6712 2.1072-0.114-1.1912 1.7418z" stop-color="#000000"/>
    <path d="m64.694 156.95-4.4719-2.4185-4.5275 2.3128 0.91821-5.0004-3.5987-3.5912 5.0394-0.67194 2.3034-4.5323 2.1963 4.5851 5.0222 0.79011-3.682 3.5057z" stop-color="#000000"/>
    <path d="m58.916 183.78-2.1541-1.8029-2.7064 0.7524 1.049-2.6058-1.5519-2.3414 2.8024 0.19244 1.7473-2.1995 0.68297 2.7248 2.6318 0.98209-2.3803 1.4915z" stop-color="#000000"/>
    <path d="m59.098 207.67-1.2615 3.6568 2.2972 3.1123-3.8676-0.0698-2.2501 3.1465-1.1288-3.6999-3.6878-1.1676 3.17-2.2169-0.0291-3.8682 3.088 2.3298z" stop-color="#000000"/>
    <path d="m144.89 149.77-2.4776-1.6255-2.7437 1.1195 0.78035-2.8587-1.9125-2.2635 2.9599-0.14123 1.5617-2.5184 1.049 2.7714 2.8777 0.70703-2.3116 1.8541z" stop-color="#000000"/>
    <path d="m142.55 178.8-1.0246 1.2375 0.43859 1.5456-1.4935-0.592-1.3344 0.89472 0.1015-1.6034-1.2633-0.99259 1.5563-0.39894 0.55364-1.5082 0.86032 1.3568z" stop-color="#000000"/>
    <path d="m117.78 112.49-3.3875-1.8028-3.4055 1.7685 0.66778-3.7788-2.7343-2.6923 3.8002-0.53261 1.7156-3.4324 1.6809 3.4496 3.7946 0.57098-2.7613 2.6646z" stop-color="#000000"/>
    <path d="m128.89 138.51-0.8136 2.9002 1.9278 2.3144-3.0096 0.12243-1.6054 2.5487-1.0465-2.8245-2.92-0.7392 2.3629-1.8681-0.19931-3.0055 2.5068 1.67z" stop-color="#000000"/>
    <path d="m161.48 204.72-1.2834 1.049 0.1366 1.6519-1.3943-0.8964-1.5288 0.64038 0.42167-1.603-1.0815-1.2561 1.6549-0.0943 0.86047-1.4167 0.60109 1.5447z" stop-color="#000000"/>
    <path d="m169.37 223.89-0.10843 3.4226 2.758 2.0297-3.2886 0.95454-1.0781 3.2502-1.9241-2.8327-3.4243-0.0209 2.0995-2.7052-1.0383-3.2632 3.2216 1.1608z" stop-color="#000000"/>
    <path d="m138.35 225.57-0.81639-0.76421-1.0924 0.23928 0.47454-1.0126-0.56512-0.96495 1.1097 0.1384 0.74309-0.83565 0.21128 1.0981 1.0244 0.4485-0.97909 0.54027z" stop-color="#000000"/>
   </g>
   <g fill="#999">
    <path d="m129.51 208.74-0.63204 2.9009 2.0314 2.1652-2.9542 0.29532-1.4315 2.601-1.1938-2.7184-2.9161-0.55769 2.2164-1.9754-0.37073-2.9457 2.5636 1.4975z" stop-color="#000000"/>
    <path d="m92.04 202.05 0.07658 0.68673 0.60913 0.32623-0.62945 0.28505-0.12203 0.68012-0.46561-0.51056-0.68455 0.0941 0.34169-0.60059-0.30104-0.62196 0.67678 0.13938z" stop-color="#000000"/>
    <path d="m83.912 163.22 0.20432 2.0659 1.8177 1.0029-1.9017 0.83272-0.39211 2.0386-1.3796-1.5513-2.06 0.25706 1.049-1.7915-0.88105-1.8798 2.0279 0.44409z" stop-color="#000000"/>
    <path d="m54.62 121.89-1.3021-0.52174-1.168 0.77685 0.09384-1.3996-1.0998-0.87075 1.3601-0.34325 0.48829-1.315 0.74674 1.1874 1.4015 0.058-0.89857 1.0771z" stop-color="#000000"/>
    <path d="m93.348 121.83-0.1069 0.88696 0.67006 0.5909-0.87659 0.17242-0.35492 0.81986-0.43486-0.7804-0.88941-0.0842 0.60783-0.65474-0.19477-0.87189 0.81052 0.37575z" stop-color="#000000"/>
    <path d="m154.18 115.32-1.3325 4.4066 2.8747 3.5958-4.6027 0.0945-2.5315 3.8452-1.5122-4.3482-4.4392-1.2194 3.6681-2.7818-0.21208-4.5988 3.7792 2.629z" stop-color="#000000"/>
    <path d="m155.62 160.45-1.2932 1.8713 0.80839 2.1262-2.1793-0.65164-1.7723 1.4258-0.0537-2.274-1.9037-1.2449 2.1461-0.75379 0.59572-2.1953 1.3801 1.8082z" stop-color="#000000"/>
    <path d="m119.59 192.27-0.50987 2.0573 1.4057 1.5863-2.1142 0.15083-1.0743 1.8271-0.79676-1.9641-2.0697-0.45712 1.6218-1.3647-0.20482-2.1096 1.7991 1.1207z" stop-color="#000000"/>
    <path d="m50.243 162.63 0.03173 1.4946 1.2492 0.82115-1.4116 0.49203-0.39495 1.4418-0.90416-1.1905-1.4933 0.0699 0.85282-1.2278-0.52794-1.3986 1.4312 0.43167z" stop-color="#000000"/>
    <path d="m129.39 167.22-0.12619 1.2063 0.92218 0.78781-1.1862 0.25276-0.46428 1.1205-0.60696-1.0501-1.2091-0.0953 0.81113-0.90174-0.283-1.1794 1.1083 0.49277z" stop-color="#000000"/>
    <path d="m68.805 191.46 0.27191 2.696 2.3751 1.3044-2.48 1.0917-0.50664 2.6619-1.8047-2.0213-2.6882 0.34074 1.3647-2.341-1.1548-2.4513 2.6481 0.57451z" stop-color="#000000"/>
    <path d="m41.881 218.91-1.3628 2.344 1.1583 2.4515-2.6504-0.57176-1.9735 1.8592-0.27524-2.6973-2.378-1.3024 2.4803-1.0953 0.50382-2.6641 1.8081 2.0204z" stop-color="#000000"/>
    <path d="m34.089 182.96 0.12077 1.3846 1.2091 0.68546-1.2795 0.54272-0.27829 1.3617-0.91154-1.0492-1.381 0.15612 0.71613-1.1911-0.57525-1.2652 1.3541 0.313z" stop-color="#000000"/>
   </g>
   <g fill="#666">
    <path d="m55.453 236.28-0.97489 2.1075 1.1834 1.9978-2.3056-0.27593-1.5344 1.7429-0.45004-2.278-2.1317-0.9207 2.0274-1.132 0.21691-2.3119 1.7031 1.5784z" stop-color="#000000"/>
    <path d="m47.467 106.71 0.43705 1.7214 1.6658 0.61584-1.5021 0.94759-0.07094 1.7746-1.3654-1.1357-1.7096 0.4809 0.65821-1.6495-0.98567-1.4774 1.7722 0.11628z" stop-color="#000000"/>
    <path d="m72.75 102.4-0.33185 1.2432 0.83603 0.97819-1.2849 0.0686-0.67197 1.0974-0.46229-1.2009-1.2513-0.29997 0.99924-0.81075-0.10139-1.2828 1.0799 0.6998z" stop-color="#000000"/>
    <path d="m36.433 138.43-0.16654 2.4698 1.9401 1.5374-2.4004 0.60481-0.86258 2.3203-1.317-2.096-2.4732-0.10336 1.5864-1.9002-0.66597-2.3841 2.2974 0.9216z" stop-color="#000000"/>
    <path d="m162.6 175.13-0.50339 1.2215 0.72086 1.1072-1.3173-0.10129-0.83022 1.0277-0.31073-1.2841-1.234-0.472 1.1252-0.69233 0.0676-1.3194 1.0062 0.85622z" stop-color="#000000"/>
    <path d="m103.51 233.23-0.66108 2.5901 1.7589 2.0129-2.6676 0.17165-1.3709 2.2948-0.98758-2.484-2.6061-0.59467 2.0572-1.7068-0.23977-2.6623 2.259 1.4291z" stop-color="#000000"/>
   </g>
  </g>
  <g transform="translate(-10.473 -91.293)" stroke-linecap="square" stroke-width="1.0583">
   <g fill="none">
    <path d="m45.982 228.69 8.2005-4.1918 3.2516 4.8622 3.6819-3.3676 5.054 3.2393 2.9414-3.3692 3.5701 3.3862 5.2069-1.5066 3.9129 2.0872" stop-color="#000000" stroke="#475e47"/>
    <path d="m106.64 212.55 3.8652-0.77283 2.3989 3.1885 6.5221-6.0138 2.8181 5.0745 3.218-3.8801 0.2987 1.1774 4.9041-1.327 5.2922 4.7906 6.9039-1.5682" stop-color="#000000" stroke="#366136"/>
    <path d="m61.157 180.48 11.404-8.4625 4.4918 5.4022 5.7062-3.0589 3.6653 3.9636 6.0043-4.4557 2.8875 2.6124 1.6272-1.3651" stop-color="#000000" stroke="#475e47"/>
    <path d="m79.307 202.71 1.7818-1.634 1.664 2.2758 2.0184-3.0573 1.372 1.0389" stop-color="#000000" stroke="#475e47"/>
    <path d="m121.67 179.75 4.0692-2.7393 4.2089 3.2053 3.8385-0.93544 2.738 1.6821 1.027-2.9631 1.5146 0.17045 2.1078 2.164 3.469-2.8486 3.1151 4.9669" stop-color="#000000" stroke="#385238"/>
    <path d="m68.672 143.49 4.3828-2.4554 9.5882 3.2248 3.0343-4.3444 6.5013 7.1327 5.2323-2.7915 6.9298 2.8813 0.54632-3.416 5.5502 3.2046 1.4308-1.4967" stop-color="#000000" stroke="#366136"/>
    <path d="m32.117 127.02 6.316-5.0392 2.0372 2.7241 9.3857-4.3034 3.8673 1.504 3.8952 3.1168 4.0787-2.9201 4.8155 3.4207-1.6093-3.7905" stop-color="#000000" stroke="#475e47"/>
    <path d="m29.628 174.12 5.0248-2.5555 3.0161 2.3659 5.6913-2.4058 0.31279 2.5692" stop-color="#000000" stroke="#366136"/>
    <path d="m135.68 127.36 2.3595-2.7553 0.61973 4.2469 2.4914-7.1847 0.58945 9.5256 0.34886-4.5586 2.307 1.6968" stop-color="#000000" stroke="#475e47"/>
    <path d="m141.38 155.58 5.719-2.1997 1.8021 3.8959 5.0218-3.9827 3.6131 6.9194 2.4711-6.829 2.5585 3.3744 3.5852-0.78012 1.127 2.2308" stop-color="#000000" stroke="#475e47"/>
   </g>
   <g>
    <path d="m87.264 182.3 0.963 2.8501-1.9867 2.259-2.9497-0.59105-0.96301-2.8501 1.9867-2.259z" fill="#c2c23d" stop-color="#000000" stroke="#d2b02d"/>
    <path d="m53.42 139.23 1.649 0.95203v1.9041l-1.649 0.95203-1.649-0.95203v-1.9041z" fill="#c2c23d" stop-color="#000000" stroke="#d2b02d"/>
    <path d="m132.29 133.2 0.83051 1.56-0.93572 1.4992-1.7662-0.0607-0.83051-1.56 0.93572-1.4992z" fill="#b44" stop-color="#000000" stroke="#c33c3c"/>
    <path d="m145.83 226.59-0.0751 3.203-2.8114 1.5365-2.7364-1.6665 0.0751-3.203 2.8114-1.5365z" fill="#7454a0" stop-color="#000000" stroke="#404040"/>
   </g>
  </g>
 </g>
 <g display="none">
  <rect x=".19844" y=".19844" width="168.94" height="168.94" fill="none" stop-color="#000000" stroke="#f00" stroke-linecap="square" stroke-width=".39687"/>
  <rect x="17.132" y="17.132" width="135.07" height="135.07" display="inline" fill="none" stop-color="#000000" stroke="#0ff" stroke-linecap="square" stroke-width=".39688"/>
  <text x="-0.22080931" y="173.8754" fill="#000000" font-family="sans-serif" font-size="4.2333px" stroke-width=".26458" style="line-height:1.25" xml:space="preserve"><tspan x="-0.22080931" y="173.8754" fill="#ff0000" font-size="4.2333px" stroke-width=".26458">map (visible)</tspan></text>
  <text x="70.961098" y="156.42674" fill="#00ffff" font-family="sans-serif" font-size="4.2333px" stroke-width=".26458" style="line-height:1.25" xml:space="preserve"><tspan x="70.961098" y="156.42674" fill="#00ffff" font-size="4.2333px" stroke-width=".26458">map (used)</tspan></text>
 </g>
</svg>
