<?xml version="1.0" encoding="UTF-8" standalone="no"?>
<svg
   xmlns:dc="http://purl.org/dc/elements/1.1/"
   xmlns:cc="http://creativecommons.org/ns#"
   xmlns:rdf="http://www.w3.org/1999/02/22-rdf-syntax-ns#"
   xmlns:svg="http://www.w3.org/2000/svg"
   xmlns="http://www.w3.org/2000/svg"
   xmlns:sodipodi="http://sodipodi.sourceforge.net/DTD/sodipodi-0.dtd"
   xmlns:inkscape="http://www.inkscape.org/namespaces/inkscape"
   width="256"
   height="128"
   viewBox="0 0 67.733332 33.866668"
   version="1.1"
   id="svg1497"
   inkscape:version="1.0 (4035a4fb49, 2020-05-01)"
   sodipodi:docname="particles-work.svg">
  <defs
     id="defs1491" />
  <sodipodi:namedview
     id="base"
     pagecolor="#ffffff"
     bordercolor="#666666"
     borderopacity="1.0"
     inkscape:pageopacity="0.0"
     inkscape:pageshadow="2"
     inkscape:zoom="2.6635659"
     inkscape:cx="181.08315"
     inkscape:cy="81.561496"
     inkscape:document-units="px"
     inkscape:current-layer="layer1"
     inkscape:document-rotation="0"
     showgrid="false"
     inkscape:pagecheckerboard="true"
     units="px"
     inkscape:window-width="1900"
     inkscape:window-height="1036"
     inkscape:window-x="10"
     inkscape:window-y="10"
     inkscape:window-maximized="0" />
  <metadata
     id="metadata1494">
    <rdf:RDF>
      <cc:Work
         rdf:about="">
        <dc:format>image/svg+xml</dc:format>
        <dc:type
           rdf:resource="http://purl.org/dc/dcmitype/StillImage" />
        <dc:title></dc:title>
      </cc:Work>
    </rdf:RDF>
  </metadata>
  <g
     inkscape:label="grids"
     inkscape:groupmode="layer"
     id="layer1">
    <ellipse
       style="display:inline;fill:#000000;fill-opacity:1;stroke:none;stroke-width:0.265112;stroke-miterlimit:4;stroke-dasharray:none;stroke-opacity:1;stop-color:#000000"
       id="path10617"
       cx="8.4665537"
       cy="13.890623"
       rx="7.5659122"
       ry="1.9843751" />
    <ellipse
       ry="1.4903615"
       rx="4.9909215"
       cy="14.948957"
       cx="25.399767"
       id="path10617-7"
       style="display:inline;fill:#000000;fill-opacity:1;stroke:none;stroke-width:0.265112;stroke-miterlimit:4;stroke-dasharray:none;stroke-opacity:1;stop-color:#000000" />
    <path
       id="path10307-4"
       d="m 5.3255265,24.039945 c 1.47288,-0.80025 1.66097,-2.821031 0.74368,-4.262291 v 0 c 0.31633,1.00939 -0.86796,1.34221 -0.86796,1.34221 0.10653,-1.12272 0.0114,-2.600189 -2.38926,-3.183919 0,0 0.75354,1.20958 0.1509,2.505999 -0.34411,-1.081259 -1.18918,-1.201959 -1.18918,-1.201959 0,0 0.7786,0.939649 0.25363,2.075139 -0.36166,0.78227 -0.49834,2.322851 0.72041,2.871491 0.33021,0.14864 0.7599,0.22447 1.31156,0.192679 0.49584,-0.0286 0.91712,-0.149679 1.26622,-0.339349"
       style="display:inline;fill:#ff2e00;fill-opacity:1;stroke:none;stroke-width:0.396875;stroke-miterlimit:4;stroke-dasharray:none;stroke-opacity:1;stop-color:#000000" />
    <path
       style="display:inline;fill:#ff2e00;fill-opacity:1;stroke:none;stroke-width:0.396875;stroke-miterlimit:4;stroke-dasharray:none;stroke-opacity:1;stop-color:#000000"
       d="m 13.407387,23.077314 c 0.81596,-0.44333 0.92016,-1.56281 0.412,-2.36125 v 0 c 0.17524,0.55919 -0.48084,0.743571 -0.48084,0.743571 0.059,-0.621981 0.006,-1.440481 -1.32362,-1.763861 0,0 0.41745,0.67009 0.0836,1.3883 -0.19064,-0.59901 -0.6588,-0.66588 -0.6588,-0.66588 0,0 0.43134,0.52056 0.14051,1.14961 -0.20035,0.43336 -0.27607,1.286831 0.3991,1.59077 0.18293,0.0824 0.42097,0.124351 0.72658,0.10674 0.27469,-0.0158 0.50808,-0.0829 0.70147,-0.188"
       id="path10307-4-8" />
    <path
       id="path13885"
       style="display:inline;fill:#1c6a2d;fill-opacity:1;stroke:none;stroke-width:0.396875;stroke-miterlimit:4;stroke-dasharray:none;stroke-opacity:1;stop-color:#000000"
       d="m 4.0259465,26.640955 c -1.63217,0 -2.95521,1.11265 -2.95521,2.48531 0,0.80082 0.45885,1.55247 1.23318,2.01636 l -0.37043,1.70593 h 0.89055 v -0.78886 h 0.32242 v 0.78886 h 0.37107 v -0.78886 h 0.32338 v 0.78886 h 0.37011 v -0.78886 h 0.32337 v 0.78886 h 0.37011 v -0.78886 h 0.32337 v 0.78886 h 0.89024 l -0.37011,-1.70593 c 0.77439,-0.46389 1.23318,-1.21554 1.23318,-2.01636 0,-1.37266 -1.32305,-2.48531 -2.95523,-2.48531 z m -1.74792,1.66771 1.2054,0.39064 c 0.0107,0.0976 4.3e-4,0.19652 -0.03,0.2899 -0.11862,0.36427 -0.51067,0.56363 -0.87571,0.44528 -0.36505,-0.11836 -0.56484,-0.50955 -0.44622,-0.87381 0.0304,-0.0934 0.0803,-0.17931 0.14653,-0.25201 z m 3.49587,0 c 0.0662,0.0727 0.11608,0.15862 0.14651,0.25201 0.11862,0.36426 -0.0812,0.75545 -0.44621,0.87381 -0.36505,0.11835 -0.75709,-0.081 -0.87571,-0.44528 -0.0306,-0.0934 -0.0407,-0.19229 -0.03,-0.2899 z m -2.10952,1.83509 0.32937,0.085 -0.0429,0.16359 -0.20527,0.79485 -0.0417,0.16453 -0.32937,-0.0846 0.0429,-0.16484 0.20526,-0.79486 z m 0.72317,0 0.042,0.16359 0.20527,0.79485 0.0417,0.16485 -0.32812,0.0846 -0.0429,-0.16453 -0.20432,-0.79486 -0.043,-0.16358 z" />
    <path
       d="m 12.814957,28.499335 c -0.74182,0 -1.34315,0.5057 -1.34315,1.12957 0,0.36398 0.20855,0.7056 0.56049,0.91644 l -0.16836,0.77534 h 0.40475 v -0.35853 h 0.14654 v 0.35853 h 0.16865 v -0.35853 h 0.14697 v 0.35853 h 0.16822 v -0.35853 h 0.14697 v 0.35853 h 0.16822 v -0.35853 h 0.14697 v 0.35853 h 0.40461 l -0.16822,-0.77534 c 0.35197,-0.21084 0.56049,-0.55247 0.56049,-0.91644 0,-0.62387 -0.60133,-1.12957 -1.34315,-1.12957 z m -0.79443,0.75798 0.54785,0.17754 c 0.005,0.0444 1.9e-4,0.0893 -0.0136,0.13176 -0.0539,0.16556 -0.2321,0.25617 -0.39801,0.20238 -0.16591,-0.0538 -0.25672,-0.23159 -0.20281,-0.39715 0.0138,-0.0425 0.0365,-0.0815 0.0666,-0.11453 z m 1.58886,0 c 0.0301,0.033 0.0528,0.0721 0.0666,0.11453 0.0539,0.16556 -0.0369,0.34335 -0.2028,0.39715 -0.16592,0.0538 -0.3441,-0.0368 -0.39801,-0.20238 -0.0139,-0.0424 -0.0185,-0.0874 -0.0136,-0.13176 z m -0.95877,0.83404 0.1497,0.0386 -0.0195,0.0744 -0.0933,0.36127 -0.0189,0.0748 -0.1497,-0.0385 0.0195,-0.0749 0.0933,-0.36127 z m 0.32868,0 0.0191,0.0743 0.0933,0.36127 0.019,0.0749 -0.14913,0.0385 -0.0195,-0.0748 -0.0929,-0.36127 -0.0195,-0.0743 z"
       style="display:inline;fill:#1c6a2d;fill-opacity:1;stroke:none;stroke-width:0.396875;stroke-miterlimit:4;stroke-dasharray:none;stroke-opacity:1;stop-color:#000000"
       id="path13885-2" />
    <path
       sodipodi:nodetypes="sscsscs"
       d="m 18.319497,20.250914 c -0.0283,-0.842229 0.63987,-1.525959 1.42919,-1.525959 0.78933,0 1.42919,0.6832 1.42919,1.525959 0,-0.842759 0.63988,-1.525959 1.42919,-1.525959 0.78933,0 1.45745,0.68373 1.4292,1.525959 -0.0498,1.48747 -1.6095,1.66103 -2.85839,3.68398 -1.24887,-2.02295 -2.8085,-2.19651 -2.85838,-3.68398 z"
       style="display:inline;fill:#ff0087;fill-opacity:1;stroke:none;stroke-width:0.396875;stroke-linecap:square;stroke-miterlimit:4;stroke-dasharray:none;stroke-opacity:1;stop-color:#000000"
       id="path14074-0-8-8" />
    <path
       id="path14074-0-8-8-8"
       style="display:inline;fill:#ff0087;fill-opacity:1;stroke:none;stroke-width:0.396875;stroke-linecap:square;stroke-miterlimit:4;stroke-dasharray:none;stroke-opacity:1;stop-color:#000000"
       d="m 27.931757,20.953234 c -0.018,-0.53543 0.40677,-0.97009 0.90857,-0.97009 0.5018,0 0.90858,0.43433 0.90858,0.97009 0,-0.53576 0.40678,-0.97009 0.90857,-0.97009 0.50179,0 0.92654,0.43466 0.90858,0.97009 -0.0317,0.94563 -1.0232,1.05596 -1.81715,2.34201 -0.79394,-1.28605 -1.78544,-1.39638 -1.81715,-2.34201 z"
       sodipodi:nodetypes="sscsscs" />
    <path
       d="m 43.132917,9.6568773 c -1.04154,-0.0096 -2.05979,0.5827947 -2.56618,1.4929977 -0.69277,-0.651791 -1.90411,-0.56404 -2.49585,0.180586 -0.29136,0.344337 -0.43959,0.805087 -0.40316,1.254716 -0.51636,0.164781 -0.96144,0.538418 -1.21317,1.018432 -0.90364,-0.100258 -1.77284,0.681491 -1.76807,1.59083 -0.0453,0.898466 0.76839,1.713436 1.66674,1.671185 3.91298,0 7.82597,0 11.73895,0 0.11807,-0.113639 0.40268,-0.118319 0.56238,-0.243139 0.93326,-0.47922 1.31973,-1.746326 0.81266,-2.664769 -0.44617,-0.909051 -1.63731,-1.332003 -2.55686,-0.908024 -0.24301,-0.245396 -0.60677,-0.40308 -0.83145,-0.627029 -0.0609,-1.378883 -1.21149,-2.6004307 -2.58428,-2.7435347 -0.11996,-0.01482 -0.24084,-0.02226 -0.36171,-0.02225 z"
       style="display:inline;fill:#ffffff;fill-opacity:1;stroke:none;stroke-width:0.396875;stroke-linecap:square;stroke-miterlimit:4;stroke-dasharray:none;stroke-opacity:1;stop-color:#000000"
       id="rect14279" />
    <g
       style="display:inline;fill:#ffffff;fill-opacity:1;stroke:none;stroke-width:2.64675"
       transform="matrix(0.37782241,0,0,0.37782243,23.878737,-30.440678)"
       id="g14352">
      <rect
         style="fill:#ffffff;fill-opacity:1;stroke:none;stroke-width:1.05043;stroke-linecap:square;stroke-miterlimit:4;stroke-dasharray:none;stroke-opacity:1;stop-color:#000000"
         id="rect14314"
         width="19.779436"
         height="6.157228"
         x="-106.93384"
         y="119.05467"
         transform="scale(-1,1)" />
      <circle
         style="fill:#ffffff;fill-opacity:1;stroke:none;stroke-width:1.05043;stroke-linecap:square;stroke-miterlimit:4;stroke-dasharray:none;stroke-opacity:1;stop-color:#000000"
         id="path14316"
         cx="-106.93384"
         cy="120.74107"
         r="4.470829"
         transform="scale(-1,1)" />
      <circle
         style="fill:#ffffff;fill-opacity:1;stroke:none;stroke-width:1.05043;stroke-linecap:square;stroke-miterlimit:4;stroke-dasharray:none;stroke-opacity:1;stop-color:#000000"
         id="path14320"
         cx="-101.27531"
         cy="117.94273"
         r="3.6274951"
         transform="scale(-1,1)" />
      <circle
         style="fill:#ffffff;fill-opacity:1;stroke:none;stroke-width:1.05043;stroke-linecap:square;stroke-miterlimit:4;stroke-dasharray:none;stroke-opacity:1;stop-color:#000000"
         id="path14322"
         cx="-92.839714"
         cy="115.9503"
         r="6.9682021"
         transform="scale(-1,1)" />
      <circle
         style="fill:#ffffff;fill-opacity:1;stroke:none;stroke-width:1.05043;stroke-linecap:square;stroke-miterlimit:4;stroke-dasharray:none;stroke-opacity:1;stop-color:#000000"
         id="path14324"
         cx="-87.154404"
         cy="120.21538"
         r="4.9965229"
         transform="scale(-1,1)" />
    </g>
    <path
       d="m 41.245497,19.346819 -6.22815,3.595824 m 6.22815,0.04387 -6.22815,-3.595824 m 3.09813,-1.863718 v 7.279391"
       style="display:inline;fill:none;fill-opacity:1;stroke:#00ff00;stroke-width:0.264583;stroke-linecap:square;stroke-miterlimit:4;stroke-dasharray:none;stroke-opacity:1;stop-color:#000000"
       id="path15338" />
    <path
       id="path15338-3"
       style="display:inline;fill:none;fill-opacity:1;stroke:#ff0000;stroke-width:0.264583;stroke-linecap:square;stroke-miterlimit:4;stroke-dasharray:none;stroke-opacity:1;stop-color:#000000"
       d="m 49.712047,19.346819 -6.22815,3.595824 m 6.22815,0.04387 -6.22815,-3.595824 m 3.09813,-1.863718 v 7.279391" />
    <path
       id="path15338-2"
       style="display:inline;fill:none;fill-opacity:1;stroke:#ffff00;stroke-width:0.264583;stroke-linecap:square;stroke-miterlimit:4;stroke-dasharray:none;stroke-opacity:1;stop-color:#000000"
       d="m 58.178707,19.346819 -6.22815,3.595824 m 6.22815,0.04387 -6.22815,-3.595824 m 3.09813,-1.863718 v 7.279391" />
    <path
       id="path15338-9"
       style="display:inline;fill:none;fill-opacity:1;stroke:#0049ff;stroke-width:0.264583;stroke-linecap:square;stroke-miterlimit:4;stroke-dasharray:none;stroke-opacity:1;stop-color:#000000"
       d="m 66.645377,19.346819 -6.22815,3.595824 m 6.22815,0.04387 -6.22815,-3.595824 m 3.09813,-1.863718 v 7.279391" />
  </g>
</svg>
