<?xml version="1.0" encoding="UTF-8"?>
<svg width="1200" height="640" version="1.1" viewBox="0 0 317.5 169.33" xmlns="http://www.w3.org/2000/svg" xmlns:xlink="http://www.w3.org/1999/xlink">
 <defs>
  <linearGradient id="linearGradient10314">
   <stop stop-color="#727272" offset="0"/>
   <stop stop-color="#d5d5d5" offset="1"/>
  </linearGradient>
  <linearGradient id="linearGradient3589">
   <stop stop-color="#6381f0" offset="0"/>
   <stop stop-color="#0d30ad" offset="1"/>
  </linearGradient>
  <linearGradient id="linearGradient3229">
   <stop stop-color="#f4f030" offset="0"/>
   <stop stop-color="#ada50d" offset="1"/>
  </linearGradient>
  <linearGradient id="linearGradient2600">
   <stop stop-color="#ec5652" offset="0"/>
   <stop stop-color="#b02626" offset="1"/>
  </linearGradient>
  <linearGradient id="linearGradient1105">
   <stop stop-color="#52ec52" offset="0"/>
   <stop stop-color="#26b053" offset="1"/>
  </linearGradient>
  <linearGradient id="linearGradient1107" x1="56.712" x2="103.28" y1="87.533" y2="74.006" gradientTransform="matrix(.29481 0 0 .29425 -15.082 -15.34)" gradientUnits="userSpaceOnUse" xlink:href="#linearGradient1105"/>
  <linearGradient id="linearGradient10316" x1="15.578" x2="45.054" y1="111.75" y2="97.538" gradientTransform="matrix(.34589 0 0 .34589 99.659 -27.653)" gradientUnits="userSpaceOnUse" xlink:href="#linearGradient10314"/>
  <linearGradient id="linearGradient10354" x1="21.543" x2="46.952" y1="107.75" y2="95.4" gradientUnits="userSpaceOnUse">
   <stop stop-color="#ff2e00" offset="0"/>
   <stop stop-color="#ff5c3c" offset="1"/>
  </linearGradient>
  <linearGradient id="linearGradient10362" x1="26.088" x2="35.603" y1="113.17" y2="116.54" gradientUnits="userSpaceOnUse">
   <stop stop-color="#f70" offset="0"/>
   <stop stop-color="#ffd44d" offset="1"/>
  </linearGradient>
  <filter id="filter10454" x="-.5" y="-.5" width="2" height="2" color-interpolation-filters="sRGB">
   <feGaussianBlur result="blur" stdDeviation="1 1"/>
  </filter>
  <linearGradient id="linearGradient11363" x1="15.578" x2="45.054" y1="111.75" y2="97.538" gradientTransform="matrix(.34589 0 0 .34589 99.659 6.2141)" gradientUnits="userSpaceOnUse" xlink:href="#linearGradient10314"/>
  <filter id="filter11900" x="-.5" y="-.5" width="2" height="2" color-interpolation-filters="sRGB">
   <feGaussianBlur stdDeviation="0.37642215012293784"/>
  </filter>
  <linearGradient id="linearGradient12890" x1="56.712" x2="103.28" y1="87.533" y2="74.006" gradientTransform="matrix(.29481 0 0 .29425 -15.082 -15.34)" gradientUnits="userSpaceOnUse" xlink:href="#linearGradient2600"/>
  <linearGradient id="linearGradient13234" x1="56.712" x2="103.28" y1="87.533" y2="74.006" gradientTransform="matrix(.29481 0 0 .29425 -15.082 -15.34)" gradientUnits="userSpaceOnUse" xlink:href="#linearGradient3229"/>
  <linearGradient id="linearGradient13662" x1="56.712" x2="103.28" y1="87.533" y2="74.006" gradientTransform="matrix(.29481 0 0 .29425 -15.082 -15.34)" gradientUnits="userSpaceOnUse" xlink:href="#linearGradient3589"/>
  <linearGradient id="linearGradient14156" x1="107.59" x2="114.32" y1="61.033" y2="58.089" gradientUnits="userSpaceOnUse">
   <stop stop-color="#ee3698" offset="0"/>
   <stop stop-color="#ea306f" offset="1"/>
  </linearGradient>
  <filter id="filter14219" color-interpolation-filters="sRGB">
   <feGaussianBlur stdDeviation="1.0099999999999998"/>
  </filter>
 </defs>
 <g display="none">
  <g fill="none">
   <rect x=".1325" y=".1325" width="16.668" height="16.668" stop-color="#000000" stroke="#000" stroke-width=".265"/>
   <g stroke-width=".265">
    <rect x="17.066" y=".1325" width="16.668" height="16.668" display="inline" stop-color="#000000" stroke="#4d4d4d"/>
    <rect x="33.999" y=".1325" width="16.668" height="16.668" display="inline" stop-color="#000000" stroke="#000"/>
    <rect x="50.932" y=".1325" width="16.668" height="16.668" display="inline" stop-color="#000000" stroke="#4d4d4d"/>
    <rect transform="scale(-1,1)" x="-67.601" y="17.066" width="16.668" height="16.668" display="inline" stop-color="#000000" stroke="#000"/>
    <rect transform="scale(-1,1)" x="-50.667" y="17.066" width="16.668" height="16.668" display="inline" stop-color="#000000" stroke="#4d4d4d"/>
    <rect transform="scale(-1,1)" x="-33.734" y="17.066" width="16.668" height="16.668" display="inline" stop-color="#000000" stroke="#000"/>
    <rect transform="scale(-1,1)" x="-16.801" y="17.066" width="16.668" height="16.668" display="inline" stop-color="#000000" stroke="#4d4d4d"/>
   </g>
   <rect x=".1325" y="33.999" width="16.668" height="16.668" stop-color="#000000" stroke="#000" stroke-width=".265"/>
   <g stroke-width=".265">
    <rect x="17.066" y="33.999" width="16.668" height="16.668" display="inline" stop-color="#000000" stroke="#4d4d4d"/>
    <rect x="33.999" y="33.999" width="16.668" height="16.668" display="inline" stop-color="#000000" stroke="#000"/>
    <rect x="50.932" y="33.999" width="16.668" height="16.668" display="inline" stop-color="#000000" stroke="#4d4d4d"/>
    <rect transform="scale(-1,1)" x="-67.601" y="50.932" width="16.668" height="16.668" display="inline" stop-color="#000000" stroke="#000"/>
    <rect transform="scale(-1,1)" x="-50.667" y="50.932" width="16.668" height="16.668" display="inline" stop-color="#000000" stroke="#4d4d4d"/>
    <rect transform="scale(-1,1)" x="-33.734" y="50.932" width="16.668" height="16.668" display="inline" stop-color="#000000" stroke="#000"/>
    <rect transform="scale(-1,1)" x="-16.801" y="50.932" width="16.668" height="16.668" display="inline" stop-color="#000000" stroke="#4d4d4d"/>
   </g>
  </g>
  <text x="-0.14883797" y="71.649124" fill="#ff0000" font-family="sans-serif" font-size="4.2333px" stroke-width=".26458" style="line-height:1.25" xml:space="preserve"><tspan x="-0.14883797" y="71.649124" fill="#ff0000" font-size="4.2333px" stroke-width=".26458">blobs</tspan></text>
  <g fill="none">
   <g stroke-width=".265">
    <rect transform="scale(1,-1)" x="67.866" y="-67.601" width="16.668" height="16.668" display="inline" stop-color="#000000" stroke="#4d4d4d"/>
    <rect transform="scale(-1)" x="-84.534" y="-50.668" width="16.668" height="16.668" display="inline" stop-color="#000000" stroke="#000"/>
    <rect transform="scale(1,-1)" x="67.866" y="-33.734" width="16.668" height="16.668" display="inline" stop-color="#000000" stroke="#4d4d4d"/>
    <rect transform="scale(-1)" x="-84.534" y="-16.801" width="16.668" height="16.668" display="inline" stop-color="#000000" stroke="#000"/>
   </g>
   <rect x=".13256" y=".13256" width="84.402" height="67.468" stop-color="#000000" stroke="#f00" stroke-width=".26511"/>
  </g>
  <g transform="translate(101.6)" display="inline">
   <g fill="none">
    <rect x=".1325" y=".1325" width="16.668" height="16.668" stop-color="#000000" stroke="#000" stroke-width=".265"/>
    <g stroke-width=".265">
     <rect x="17.066" y=".1325" width="16.668" height="16.668" display="inline" stop-color="#000000" stroke="#4d4d4d"/>
     <rect x="33.999" y=".1325" width="16.668" height="16.668" display="inline" stop-color="#000000" stroke="#000"/>
     <rect x="50.932" y=".1325" width="16.668" height="16.668" display="inline" stop-color="#000000" stroke="#4d4d4d"/>
     <rect transform="scale(-1,1)" x="-67.601" y="17.066" width="16.668" height="16.668" display="inline" stop-color="#000000" stroke="#000"/>
     <rect transform="scale(-1,1)" x="-50.667" y="17.066" width="16.668" height="16.668" display="inline" stop-color="#000000" stroke="#4d4d4d"/>
     <rect transform="scale(-1,1)" x="-33.734" y="17.066" width="16.668" height="16.668" display="inline" stop-color="#000000" stroke="#000"/>
     <rect transform="scale(-1,1)" x="-16.801" y="17.066" width="16.668" height="16.668" display="inline" stop-color="#000000" stroke="#4d4d4d"/>
    </g>
   </g>
   <g transform="translate(0 33.867)" display="inline" fill="none">
    <rect x=".1325" y=".1325" width="16.668" height="16.668" stop-color="#000000" stroke="#000" stroke-width=".265"/>
    <g stroke-width=".265">
     <rect x="17.066" y=".1325" width="16.668" height="16.668" display="inline" stop-color="#000000" stroke="#4d4d4d"/>
     <rect x="33.999" y=".1325" width="16.668" height="16.668" display="inline" stop-color="#000000" stroke="#000"/>
     <rect x="50.932" y=".1325" width="16.668" height="16.668" display="inline" stop-color="#000000" stroke="#4d4d4d"/>
     <rect transform="scale(-1,1)" x="-67.601" y="17.066" width="16.668" height="16.668" display="inline" stop-color="#000000" stroke="#000"/>
     <rect transform="scale(-1,1)" x="-50.667" y="17.066" width="16.668" height="16.668" display="inline" stop-color="#000000" stroke="#4d4d4d"/>
     <rect transform="scale(-1,1)" x="-33.734" y="17.066" width="16.668" height="16.668" display="inline" stop-color="#000000" stroke="#000"/>
     <rect transform="scale(-1,1)" x="-16.801" y="17.066" width="16.668" height="16.668" display="inline" stop-color="#000000" stroke="#4d4d4d"/>
    </g>
   </g>
   <rect x=".13256" y=".13256" width="67.468" height="67.468" fill-opacity=".132" stop-color="#000000" stroke="#f00" stroke-width=".26511"/>
   <text x="-0.14883797" y="71.649124" fill="#ff0000" font-family="sans-serif" font-size="4.2333px" stroke-width=".26458" style="line-height:1.25" xml:space="preserve"><tspan x="-0.14883797" y="71.649124" fill="#ff0000" font-size="4.2333px" stroke-width=".26458">items</tspan></text>
  </g>
  <g transform="translate(186.27)" display="inline">
   <g fill="none">
    <rect x=".1325" y=".1325" width="16.668" height="16.668" stop-color="#000000" stroke="#000" stroke-width=".265"/>
    <g stroke-width=".265">
     <rect x="17.066" y=".1325" width="16.668" height="16.668" display="inline" stop-color="#000000" stroke="#4d4d4d"/>
     <rect x="33.999" y=".1325" width="16.668" height="16.668" display="inline" stop-color="#000000" stroke="#000"/>
     <rect x="50.932" y=".1325" width="16.668" height="16.668" display="inline" stop-color="#000000" stroke="#4d4d4d"/>
    </g>
   </g>
   <rect x=".13256" y=".13256" width="67.468" height="33.602" fill-opacity=".12592" stop-color="#000000" stroke="#f00" stroke-width=".26511"/>
   <text x="-0.27500772" y="37.848198" fill="#ff0000" font-family="sans-serif" font-size="4.2333px" stroke-width=".26458" style="line-height:1.25" xml:space="preserve"><tspan x="-0.27500772" y="37.848198" fill="#ff0000" font-size="4.2333px" stroke-width=".26458">particles</tspan></text>
   <g fill="none" stroke-width=".13229">
    <rect transform="scale(-1,1)" x="-16.867" y="16.999" width="8.3344" height="8.3344" display="inline" stop-color="#000000" stroke="#000"/>
    <rect transform="scale(-1,1)" x="-8.4005" y="16.999" width="8.3344" height="8.3344" display="inline" stop-color="#000000" stroke="#4d4d4d"/>
    <rect transform="scale(1,-1)" x=".066146" y="-33.801" width="8.3344" height="8.3344" display="inline" stop-color="#000000" stroke="#000"/>
    <rect transform="scale(1,-1)" x="8.5328" y="-33.801" width="8.3344" height="8.3344" display="inline" stop-color="#000000" stroke="#4d4d4d"/>
   </g>
   <g transform="translate(16.933)" display="inline" fill="none" stroke-width=".13229">
    <rect transform="scale(-1,1)" x="-16.867" y="16.999" width="8.3344" height="8.3344" display="inline" stop-color="#000000" stroke="#000"/>
    <rect transform="scale(-1,1)" x="-8.4005" y="16.999" width="8.3344" height="8.3344" display="inline" stop-color="#000000" stroke="#4d4d4d"/>
    <rect transform="scale(1,-1)" x=".066146" y="-33.801" width="8.3344" height="8.3344" display="inline" stop-color="#000000" stroke="#000"/>
    <rect transform="scale(1,-1)" x="8.5328" y="-33.801" width="8.3344" height="8.3344" display="inline" stop-color="#000000" stroke="#4d4d4d"/>
   </g>
   <g transform="translate(33.867)" display="inline" fill="none" stroke-width=".13229">
    <rect transform="scale(-1,1)" x="-16.867" y="16.999" width="8.3344" height="8.3344" display="inline" stop-color="#000000" stroke="#000"/>
    <rect transform="scale(-1,1)" x="-8.4005" y="16.999" width="8.3344" height="8.3344" display="inline" stop-color="#000000" stroke="#4d4d4d"/>
    <rect transform="scale(1,-1)" x=".066146" y="-33.801" width="8.3344" height="8.3344" display="inline" stop-color="#000000" stroke="#000"/>
    <rect transform="scale(1,-1)" x="8.5328" y="-33.801" width="8.3344" height="8.3344" display="inline" stop-color="#000000" stroke="#4d4d4d"/>
   </g>
   <g transform="translate(50.8)" display="inline" fill="none" stroke-width=".13229">
    <rect transform="scale(-1,1)" x="-16.867" y="16.999" width="8.3344" height="8.3344" display="inline" stop-color="#000000" stroke="#000"/>
    <rect transform="scale(-1,1)" x="-8.4005" y="16.999" width="8.3344" height="8.3344" display="inline" stop-color="#000000" stroke="#4d4d4d"/>
    <rect transform="scale(1,-1)" x=".066146" y="-33.801" width="8.3344" height="8.3344" display="inline" stop-color="#000000" stroke="#000"/>
    <rect transform="scale(1,-1)" x="8.5328" y="-33.801" width="8.3344" height="8.3344" display="inline" stop-color="#000000" stroke="#4d4d4d"/>
   </g>
  </g>
 </g>
 <g stroke-width=".99997">
  <g transform="matrix(1 0 0 1 50.8 3.225e-6)">
   <path d="m8.4463 1.9846a7.805 8.362 0 0 0-7.7846 8.3619 7.805 5.0696 0 0 0 7.805 5.0696 7.805 5.0696 0 0 0 7.805-5.0696 7.805 8.362 0 0 0-7.805-8.3619 7.805 8.362 0 0 0-0.02041 0z" fill="url(#linearGradient1107)" stop-color="#000000" stroke="#000" stroke-width=".39686"/>
   <g transform="matrix(1.3913 0 0 1.3868 -2.0657 -1.1078)">
    <g stroke-width=".71989">
     <ellipse cx="5.6123" cy="6.527" rx="1.5507" ry="1.8618" fill="#fff" stop-color="#000000"/>
     <path d="m7.0921 5.9706c-0.20258-0.77674-0.80191-1.3054-1.4798-1.3054-0.67788 0-1.2772 0.52866-1.4798 1.3054 0.92126-0.44759 1.8893-0.57408 2.9596 9.74e-5z" fill="#d7d7d7" stop-color="#000000"/>
     <ellipse cx="5.6123" cy="6.527" rx="1.5507" ry="1.8618" fill="none" stop-color="#000000" stroke="#000" stroke-width=".19085"/>
    </g>
    <g stroke-width=".71989">
     <ellipse cx="5.6273" cy="6.6231" rx=".9366" ry=".9673" stop-color="#000000"/>
     <ellipse cx="5.9271" cy="6.337" rx=".2627" ry=".25683" fill="#fff" stop-color="#000000"/>
    </g>
    <g fill="none" stroke="#000" stroke-width=".19085">
     <path d="m4.0812 4.959-0.44634-0.43566" stop-color="#000000"/>
     <path d="m4.8348 4.3708-0.31838-0.53634" stop-color="#000000"/>
     <path d="m5.5541 4.2245-0.00755-0.62367" stop-color="#000000"/>
     <path d="m6.3055 4.3057 0.3053-0.54389" stop-color="#000000"/>
    </g>
   </g>
   <g transform="matrix(-1.3913 0 0 1.3868 18.958 -1.1078)">
    <g stroke-width=".71989">
     <ellipse cx="5.6123" cy="6.527" rx="1.5507" ry="1.8618" fill="#fff" stop-color="#000000"/>
     <path d="m7.0921 5.9706c-0.20258-0.77674-0.80191-1.3054-1.4798-1.3054-0.67788 0-1.2772 0.52866-1.4798 1.3054 0.92126-0.44759 1.8893-0.57408 2.9596 9.74e-5z" fill="#d7d7d7" stop-color="#000000"/>
     <ellipse cx="5.6123" cy="6.527" rx="1.5507" ry="1.8618" fill="none" stop-color="#000000" stroke="#000" stroke-width=".19085"/>
    </g>
    <g transform="matrix(-1 0 0 1 11.255 0)" stroke-width=".71989">
     <ellipse cx="5.6273" cy="6.6231" rx=".9366" ry=".9673" stop-color="#000000"/>
     <ellipse cx="5.9271" cy="6.337" rx=".2627" ry=".25683" fill="#fff" stop-color="#000000"/>
    </g>
    <g fill="none" stroke="#000" stroke-width=".19085">
     <path d="m4.0812 4.959-0.44634-0.43566" stop-color="#000000"/>
     <path d="m4.8348 4.3708-0.31838-0.53634" stop-color="#000000"/>
     <path d="m5.5541 4.2245-0.00755-0.62367" stop-color="#000000"/>
     <path d="m6.3055 4.3057 0.3053-0.54389" stop-color="#000000"/>
    </g>
   </g>
  </g>
  <g transform="matrix(1 0 0 1 16.933 3.4437e-6)">
   <path d="m8.4463 1.9846a7.805 8.362 0 0 0-7.7846 8.3619 7.805 5.0696 0 0 0 7.805 5.0696 7.805 5.0696 0 0 0 7.805-5.0696 7.805 8.362 0 0 0-7.805-8.3619 7.805 8.362 0 0 0-0.02041 0z" fill="url(#linearGradient1107)" stop-color="#000000" stroke="#000" stroke-width=".39686"/>
   <g transform="matrix(1.3913 0 0 1.3868 -1.8672 -.9094)">
    <g stroke-width=".71989">
     <ellipse cx="5.6123" cy="6.527" rx="1.5507" ry="1.8618" fill="#fff" stop-color="#000000"/>
     <path d="m7.0921 5.9706c-0.20258-0.77674-0.80191-1.3054-1.4798-1.3054-0.67788 0-1.2772 0.52866-1.4798 1.3054 0.92126-0.44759 1.8893-0.57408 2.9596 9.74e-5z" fill="#d7d7d7" stop-color="#000000"/>
     <ellipse cx="5.6123" cy="6.527" rx="1.5507" ry="1.8618" fill="none" stop-color="#000000" stroke="#000" stroke-width=".19085"/>
    </g>
    <g stroke-width=".71989">
     <ellipse cx="5.6273" cy="6.6231" rx=".9366" ry=".9673" stop-color="#000000"/>
     <ellipse cx="5.9271" cy="6.337" rx=".2627" ry=".25683" fill="#fff" stop-color="#000000"/>
    </g>
    <path d="m3.7878 5.0711 1.6415-1.5737" fill="none" stop-color="#000000" stroke="#000" stroke-width=".19047"/>
   </g>
   <g transform="matrix(-1.3913 0 0 1.3868 18.76 -.9094)">
    <g stroke-width=".71989">
     <ellipse cx="5.6123" cy="6.527" rx="1.5507" ry="1.8618" fill="#fff" stop-color="#000000"/>
     <path d="m7.0921 5.9706c-0.20258-0.77674-0.80191-1.3054-1.4798-1.3054-0.67788 0-1.2772 0.52866-1.4798 1.3054 0.92126-0.44759 1.8893-0.57408 2.9596 9.74e-5z" fill="#d7d7d7" stop-color="#000000"/>
     <ellipse cx="5.6123" cy="6.527" rx="1.5507" ry="1.8618" fill="none" stop-color="#000000" stroke="#000" stroke-width=".19085"/>
    </g>
    <g transform="matrix(-1 0 0 1 11.255 0)" stroke-width=".71989">
     <ellipse cx="5.6273" cy="6.6231" rx=".9366" ry=".9673" stop-color="#000000"/>
     <ellipse cx="5.9271" cy="6.337" rx=".2627" ry=".25683" fill="#fff" stop-color="#000000"/>
    </g>
    <path d="m3.7878 5.0711 1.6415-1.5737" fill="none" stop-color="#000000" stroke="#000" stroke-width=".19047"/>
   </g>
  </g>
  <g transform="matrix(1 0 0 1 -.0002257 3.375e-6)">
   <path d="m8.4463 1.9846a7.805 8.362 0 0 0-7.7846 8.3619 7.805 5.0696 0 0 0 7.805 5.0696 7.805 5.0696 0 0 0 7.805-5.0696 7.805 8.362 0 0 0-7.805-8.3619 7.805 8.362 0 0 0-0.02041 0z" fill="url(#linearGradient1107)" stop-color="#000000" stroke="#000" stroke-width=".39686"/>
   <g transform="matrix(1.3913 0 0 1.3868 -2.5972 -1.0645)" stroke-width=".71989">
    <ellipse cx="5.6123" cy="6.527" rx="1.5507" ry="1.8618" fill="#fff" stop-color="#000000"/>
    <path d="m7.0921 5.9706c-0.20258-0.77674-0.80191-1.3054-1.4798-1.3054-0.67788 0-1.2772 0.52866-1.4798 1.3054 0.92126-0.44759 1.8893-0.57408 2.9596 9.74e-5z" fill="#d7d7d7" stop-color="#000000"/>
    <ellipse cx="5.6123" cy="6.527" rx="1.5507" ry="1.8618" fill="none" stop-color="#000000" stroke="#000" stroke-width=".19085"/>
    <g>
     <ellipse cx="5.6273" cy="6.6231" rx=".9366" ry=".9673" stop-color="#000000"/>
     <ellipse cx="5.9271" cy="6.337" rx=".2627" ry=".25683" fill="#fff" stop-color="#000000"/>
    </g>
   </g>
   <g transform="matrix(-1.3913 0 0 1.3868 19.531 -1.0645)" stroke-width=".71989">
    <ellipse cx="5.6123" cy="6.527" rx="1.5507" ry="1.8618" fill="#fff" stop-color="#000000"/>
    <path d="m7.0921 5.9706c-0.20258-0.77674-0.80191-1.3054-1.4798-1.3054-0.67788 0-1.2772 0.52866-1.4798 1.3054 0.92126-0.44759 1.8893-0.57408 2.9596 9.74e-5z" fill="#d7d7d7" stop-color="#000000"/>
    <ellipse cx="5.6123" cy="6.527" rx="1.5507" ry="1.8618" fill="none" stop-color="#000000" stroke="#000" stroke-width=".19085"/>
    <g transform="matrix(-1 0 0 1 11.255 0)">
     <ellipse cx="5.6273" cy="6.6231" rx=".9366" ry=".9673" stop-color="#000000"/>
     <ellipse cx="5.9271" cy="6.337" rx=".2627" ry=".25683" fill="#fff" stop-color="#000000"/>
    </g>
   </g>
  </g>
  <g transform="matrix(1 0 0 1 33.866 3.4437e-6)">
   <path d="m8.4463 1.9846a7.805 8.362 0 0 0-7.7846 8.3619 7.805 5.0696 0 0 0 7.805 5.0696 7.805 5.0696 0 0 0 7.805-5.0696 7.805 8.362 0 0 0-7.805-8.3619 7.805 8.362 0 0 0-0.02041 0z" fill="url(#linearGradient1107)" stop-color="#000000" stroke="#000" stroke-width=".39686"/>
   <g transform="matrix(1.3913 0 0 1.3868 -2.7193 -.90553)">
    <g stroke-width=".71989">
     <ellipse cx="5.6123" cy="6.527" rx="1.5507" ry="1.8618" fill="#fff" stop-color="#000000"/>
     <path d="m7.0921 5.9706c-0.20258-0.77674-0.80191-1.3054-1.4798-1.3054-0.67788 0-1.2772 0.52866-1.4798 1.3054 0.92126-0.44759 1.8893-0.57408 2.9596 9.74e-5z" fill="#d7d7d7" stop-color="#000000"/>
     <ellipse cx="5.6123" cy="6.527" rx="1.5507" ry="1.8618" fill="none" stop-color="#000000" stroke="#000" stroke-width=".19085"/>
    </g>
    <g stroke-width=".71989">
     <ellipse cx="5.6273" cy="6.6231" rx=".9366" ry=".9673" stop-color="#000000"/>
     <ellipse cx="5.9271" cy="6.337" rx=".2627" ry=".25683" fill="#fff" stop-color="#000000"/>
    </g>
    <path d="m5.7259 3.7012 1.6595 1.2597" fill="none" stop-color="#000000" stroke="#000" stroke-width=".19047"/>
   </g>
   <g transform="matrix(-1.3913 0 0 1.3868 19.612 -.90553)">
    <g stroke-width=".71989">
     <ellipse cx="5.6123" cy="6.527" rx="1.5507" ry="1.8618" fill="#fff" stop-color="#000000"/>
     <path d="m7.0921 5.9706c-0.20258-0.77674-0.80191-1.3054-1.4798-1.3054-0.67788 0-1.2772 0.52866-1.4798 1.3054 0.92126-0.44759 1.8893-0.57408 2.9596 9.74e-5z" fill="#d7d7d7" stop-color="#000000"/>
     <ellipse cx="5.6123" cy="6.527" rx="1.5507" ry="1.8618" fill="none" stop-color="#000000" stroke="#000" stroke-width=".19085"/>
    </g>
    <g stroke-width=".71989">
     <ellipse cx="5.6273" cy="6.6231" rx=".9366" ry=".9673" stop-color="#000000"/>
     <ellipse cx="5.9271" cy="6.337" rx=".2627" ry=".25683" fill="#fff" stop-color="#000000"/>
    </g>
    <path d="m5.7259 3.7012 1.6595 1.2597" fill="none" stop-color="#000000" stroke="#000" stroke-width=".19047"/>
   </g>
  </g>
  <g transform="matrix(1 0 0 1 67.733 4e-6)" stroke="#000">
   <path d="m8.4463 1.9846a7.805 8.362 0 0 0-7.7846 8.3619 7.805 5.0696 0 0 0 7.805 5.0696 7.805 5.0696 0 0 0 7.805-5.0696 7.805 8.362 0 0 0-7.805-8.3619 7.805 8.362 0 0 0-0.02041 0z" fill="url(#linearGradient1107)" stop-color="#000000" stroke-width=".39686"/>
   <path d="m3.2219 6.7958 4.3421 0.83743-4.2301 0.58022" fill="none" stop-color="#000000" stroke-width=".52915"/>
   <path d="m13.671 6.7958-4.3421 0.83743 4.2301 0.58022" fill="none" stop-color="#000000" stroke-width=".52915"/>
  </g>
  <g transform="matrix(1 0 0 1 50.8 16.933)">
   <path d="m8.4463 1.9846a7.805 8.362 0 0 0-7.7846 8.3619 7.805 5.0696 0 0 0 7.805 5.0696 7.805 5.0696 0 0 0 7.805-5.0696 7.805 8.362 0 0 0-7.805-8.3619 7.805 8.362 0 0 0-0.02041 0z" fill="url(#linearGradient12890)" stop-color="#000000" stroke="#000" stroke-width=".39686"/>
   <g transform="matrix(1.3913 0 0 1.3868 -2.0657 -1.1078)">
    <g stroke-width=".71989">
     <ellipse cx="5.6123" cy="6.527" rx="1.5507" ry="1.8618" fill="#fff" stop-color="#000000"/>
     <path d="m7.0921 5.9706c-0.20258-0.77674-0.80191-1.3054-1.4798-1.3054-0.67788 0-1.2772 0.52866-1.4798 1.3054 0.92126-0.44759 1.8893-0.57408 2.9596 9.74e-5z" fill="#d7d7d7" stop-color="#000000"/>
     <ellipse cx="5.6123" cy="6.527" rx="1.5507" ry="1.8618" fill="none" stop-color="#000000" stroke="#000" stroke-width=".19085"/>
    </g>
    <g stroke-width=".71989">
     <ellipse cx="5.6273" cy="6.6231" rx=".9366" ry=".9673" stop-color="#000000"/>
     <ellipse cx="5.9271" cy="6.337" rx=".2627" ry=".25683" fill="#fff" stop-color="#000000"/>
    </g>
    <g fill="none" stroke="#000" stroke-width=".19085">
     <path d="m4.0812 4.959-0.44634-0.43566" stop-color="#000000"/>
     <path d="m4.8348 4.3708-0.31838-0.53634" stop-color="#000000"/>
     <path d="m5.5541 4.2245-0.00755-0.62367" stop-color="#000000"/>
     <path d="m6.3055 4.3057 0.3053-0.54389" stop-color="#000000"/>
    </g>
   </g>
   <g transform="matrix(-1.3913 0 0 1.3868 18.958 -1.1078)">
    <g stroke-width=".71989">
     <ellipse cx="5.6123" cy="6.527" rx="1.5507" ry="1.8618" fill="#fff" stop-color="#000000"/>
     <path d="m7.0921 5.9706c-0.20258-0.77674-0.80191-1.3054-1.4798-1.3054-0.67788 0-1.2772 0.52866-1.4798 1.3054 0.92126-0.44759 1.8893-0.57408 2.9596 9.74e-5z" fill="#d7d7d7" stop-color="#000000"/>
     <ellipse cx="5.6123" cy="6.527" rx="1.5507" ry="1.8618" fill="none" stop-color="#000000" stroke="#000" stroke-width=".19085"/>
    </g>
    <g transform="matrix(-1 0 0 1 11.255 0)" stroke-width=".71989">
     <ellipse cx="5.6273" cy="6.6231" rx=".9366" ry=".9673" stop-color="#000000"/>
     <ellipse cx="5.9271" cy="6.337" rx=".2627" ry=".25683" fill="#fff" stop-color="#000000"/>
    </g>
    <g fill="none" stroke="#000" stroke-width=".19085">
     <path d="m4.0812 4.959-0.44634-0.43566" stop-color="#000000"/>
     <path d="m4.8348 4.3708-0.31838-0.53634" stop-color="#000000"/>
     <path d="m5.5541 4.2245-0.00755-0.62367" stop-color="#000000"/>
     <path d="m6.3055 4.3057 0.3053-0.54389" stop-color="#000000"/>
    </g>
   </g>
  </g>
  <g transform="matrix(1 0 0 1 16.933 16.933)">
   <path d="m8.4463 1.9846a7.805 8.362 0 0 0-7.7846 8.3619 7.805 5.0696 0 0 0 7.805 5.0696 7.805 5.0696 0 0 0 7.805-5.0696 7.805 8.362 0 0 0-7.805-8.3619 7.805 8.362 0 0 0-0.02041 0z" fill="url(#linearGradient12890)" stop-color="#000000" stroke="#000" stroke-width=".39686"/>
   <g transform="matrix(1.3913 0 0 1.3868 -1.8672 -.9094)">
    <g stroke-width=".71989">
     <ellipse cx="5.6123" cy="6.527" rx="1.5507" ry="1.8618" fill="#fff" stop-color="#000000"/>
     <path d="m7.0921 5.9706c-0.20258-0.77674-0.80191-1.3054-1.4798-1.3054-0.67788 0-1.2772 0.52866-1.4798 1.3054 0.92126-0.44759 1.8893-0.57408 2.9596 9.74e-5z" fill="#d7d7d7" stop-color="#000000"/>
     <ellipse cx="5.6123" cy="6.527" rx="1.5507" ry="1.8618" fill="none" stop-color="#000000" stroke="#000" stroke-width=".19085"/>
    </g>
    <g stroke-width=".71989">
     <ellipse cx="5.6273" cy="6.6231" rx=".9366" ry=".9673" stop-color="#000000"/>
     <ellipse cx="5.9271" cy="6.337" rx=".2627" ry=".25683" fill="#fff" stop-color="#000000"/>
    </g>
    <path d="m3.7878 5.0711 1.6415-1.5737" fill="none" stop-color="#000000" stroke="#000" stroke-width=".19047"/>
   </g>
   <g transform="matrix(-1.3913 0 0 1.3868 18.76 -.9094)">
    <g stroke-width=".71989">
     <ellipse cx="5.6123" cy="6.527" rx="1.5507" ry="1.8618" fill="#fff" stop-color="#000000"/>
     <path d="m7.0921 5.9706c-0.20258-0.77674-0.80191-1.3054-1.4798-1.3054-0.67788 0-1.2772 0.52866-1.4798 1.3054 0.92126-0.44759 1.8893-0.57408 2.9596 9.74e-5z" fill="#d7d7d7" stop-color="#000000"/>
     <ellipse cx="5.6123" cy="6.527" rx="1.5507" ry="1.8618" fill="none" stop-color="#000000" stroke="#000" stroke-width=".19085"/>
    </g>
    <g transform="matrix(-1 0 0 1 11.255 0)" stroke-width=".71989">
     <ellipse cx="5.6273" cy="6.6231" rx=".9366" ry=".9673" stop-color="#000000"/>
     <ellipse cx="5.9271" cy="6.337" rx=".2627" ry=".25683" fill="#fff" stop-color="#000000"/>
    </g>
    <path d="m3.7878 5.0711 1.6415-1.5737" fill="none" stop-color="#000000" stroke="#000" stroke-width=".19047"/>
   </g>
  </g>
  <g transform="matrix(1 0 0 1 -.0002257 16.933)">
   <path d="m8.4463 1.9846a7.805 8.362 0 0 0-7.7846 8.3619 7.805 5.0696 0 0 0 7.805 5.0696 7.805 5.0696 0 0 0 7.805-5.0696 7.805 8.362 0 0 0-7.805-8.3619 7.805 8.362 0 0 0-0.02041 0z" fill="url(#linearGradient12890)" stop-color="#000000" stroke="#000" stroke-width=".39686"/>
   <g transform="matrix(1.3913 0 0 1.3868 -2.5972 -1.0645)" stroke-width=".71989">
    <ellipse cx="5.6123" cy="6.527" rx="1.5507" ry="1.8618" fill="#fff" stop-color="#000000"/>
    <path d="m7.0921 5.9706c-0.20258-0.77674-0.80191-1.3054-1.4798-1.3054-0.67788 0-1.2772 0.52866-1.4798 1.3054 0.92126-0.44759 1.8893-0.57408 2.9596 9.74e-5z" fill="#d7d7d7" stop-color="#000000"/>
    <ellipse cx="5.6123" cy="6.527" rx="1.5507" ry="1.8618" fill="none" stop-color="#000000" stroke="#000" stroke-width=".19085"/>
    <g>
     <ellipse cx="5.6273" cy="6.6231" rx=".9366" ry=".9673" stop-color="#000000"/>
     <ellipse cx="5.9271" cy="6.337" rx=".2627" ry=".25683" fill="#fff" stop-color="#000000"/>
    </g>
   </g>
   <g transform="matrix(-1.3913 0 0 1.3868 19.531 -1.0645)" stroke-width=".71989">
    <ellipse cx="5.6123" cy="6.527" rx="1.5507" ry="1.8618" fill="#fff" stop-color="#000000"/>
    <path d="m7.0921 5.9706c-0.20258-0.77674-0.80191-1.3054-1.4798-1.3054-0.67788 0-1.2772 0.52866-1.4798 1.3054 0.92126-0.44759 1.8893-0.57408 2.9596 9.74e-5z" fill="#d7d7d7" stop-color="#000000"/>
    <ellipse cx="5.6123" cy="6.527" rx="1.5507" ry="1.8618" fill="none" stop-color="#000000" stroke="#000" stroke-width=".19085"/>
    <g transform="matrix(-1 0 0 1 11.255 0)">
     <ellipse cx="5.6273" cy="6.6231" rx=".9366" ry=".9673" stop-color="#000000"/>
     <ellipse cx="5.9271" cy="6.337" rx=".2627" ry=".25683" fill="#fff" stop-color="#000000"/>
    </g>
   </g>
  </g>
  <g transform="matrix(1 0 0 1 33.866 16.933)">
   <path d="m8.4463 1.9846a7.805 8.362 0 0 0-7.7846 8.3619 7.805 5.0696 0 0 0 7.805 5.0696 7.805 5.0696 0 0 0 7.805-5.0696 7.805 8.362 0 0 0-7.805-8.3619 7.805 8.362 0 0 0-0.02041 0z" fill="url(#linearGradient12890)" stop-color="#000000" stroke="#000" stroke-width=".39686"/>
   <g transform="matrix(1.3913 0 0 1.3868 -2.7193 -.90553)">
    <g stroke-width=".71989">
     <ellipse cx="5.6123" cy="6.527" rx="1.5507" ry="1.8618" fill="#fff" stop-color="#000000"/>
     <path d="m7.0921 5.9706c-0.20258-0.77674-0.80191-1.3054-1.4798-1.3054-0.67788 0-1.2772 0.52866-1.4798 1.3054 0.92126-0.44759 1.8893-0.57408 2.9596 9.74e-5z" fill="#d7d7d7" stop-color="#000000"/>
     <ellipse cx="5.6123" cy="6.527" rx="1.5507" ry="1.8618" fill="none" stop-color="#000000" stroke="#000" stroke-width=".19085"/>
    </g>
    <g stroke-width=".71989">
     <ellipse cx="5.6273" cy="6.6231" rx=".9366" ry=".9673" stop-color="#000000"/>
     <ellipse cx="5.9271" cy="6.337" rx=".2627" ry=".25683" fill="#fff" stop-color="#000000"/>
    </g>
    <path d="m5.7259 3.7012 1.6595 1.2597" fill="none" stop-color="#000000" stroke="#000" stroke-width=".19047"/>
   </g>
   <g transform="matrix(-1.3913 0 0 1.3868 19.612 -.90553)">
    <g stroke-width=".71989">
     <ellipse cx="5.6123" cy="6.527" rx="1.5507" ry="1.8618" fill="#fff" stop-color="#000000"/>
     <path d="m7.0921 5.9706c-0.20258-0.77674-0.80191-1.3054-1.4798-1.3054-0.67788 0-1.2772 0.52866-1.4798 1.3054 0.92126-0.44759 1.8893-0.57408 2.9596 9.74e-5z" fill="#d7d7d7" stop-color="#000000"/>
     <ellipse cx="5.6123" cy="6.527" rx="1.5507" ry="1.8618" fill="none" stop-color="#000000" stroke="#000" stroke-width=".19085"/>
    </g>
    <g stroke-width=".71989">
     <ellipse cx="5.6273" cy="6.6231" rx=".9366" ry=".9673" stop-color="#000000"/>
     <ellipse cx="5.9271" cy="6.337" rx=".2627" ry=".25683" fill="#fff" stop-color="#000000"/>
    </g>
    <path d="m5.7259 3.7012 1.6595 1.2597" fill="none" stop-color="#000000" stroke="#000" stroke-width=".19047"/>
   </g>
  </g>
  <g transform="matrix(1 0 0 1 67.733 16.933)" stroke="#000">
   <path d="m8.4463 1.9846a7.805 8.362 0 0 0-7.7846 8.3619 7.805 5.0696 0 0 0 7.805 5.0696 7.805 5.0696 0 0 0 7.805-5.0696 7.805 8.362 0 0 0-7.805-8.3619 7.805 8.362 0 0 0-0.02041 0z" fill="url(#linearGradient12890)" stop-color="#000000" stroke-width=".39686"/>
   <path d="m3.2219 6.7958 4.3421 0.83743-4.2301 0.58022" fill="none" stop-color="#000000" stroke-width=".52915"/>
   <path d="m13.671 6.7958-4.3421 0.83743 4.2301 0.58022" fill="none" stop-color="#000000" stroke-width=".52915"/>
  </g>
  <g transform="matrix(1 0 0 1 50.8 33.867)">
   <path d="m8.4463 1.9846a7.805 8.362 0 0 0-7.7846 8.3619 7.805 5.0696 0 0 0 7.805 5.0696 7.805 5.0696 0 0 0 7.805-5.0696 7.805 8.362 0 0 0-7.805-8.3619 7.805 8.362 0 0 0-0.02041 0z" fill="url(#linearGradient13234)" stop-color="#000000" stroke="#000" stroke-width=".39686"/>
   <g transform="matrix(1.3913 0 0 1.3868 -2.0657 -1.1078)">
    <g stroke-width=".71989">
     <ellipse cx="5.6123" cy="6.527" rx="1.5507" ry="1.8618" fill="#fff" stop-color="#000000"/>
     <path d="m7.0921 5.9706c-0.20258-0.77674-0.80191-1.3054-1.4798-1.3054-0.67788 0-1.2772 0.52866-1.4798 1.3054 0.92126-0.44759 1.8893-0.57408 2.9596 9.74e-5z" fill="#d7d7d7" stop-color="#000000"/>
     <ellipse cx="5.6123" cy="6.527" rx="1.5507" ry="1.8618" fill="none" stop-color="#000000" stroke="#000" stroke-width=".19085"/>
    </g>
    <g stroke-width=".71989">
     <ellipse cx="5.6273" cy="6.6231" rx=".9366" ry=".9673" stop-color="#000000"/>
     <ellipse cx="5.9271" cy="6.337" rx=".2627" ry=".25683" fill="#fff" stop-color="#000000"/>
    </g>
    <g fill="none" stroke="#000" stroke-width=".19085">
     <path d="m4.0812 4.959-0.44634-0.43566" stop-color="#000000"/>
     <path d="m4.8348 4.3708-0.31838-0.53634" stop-color="#000000"/>
     <path d="m5.5541 4.2245-0.00755-0.62367" stop-color="#000000"/>
     <path d="m6.3055 4.3057 0.3053-0.54389" stop-color="#000000"/>
    </g>
   </g>
   <g transform="matrix(-1.3913 0 0 1.3868 18.958 -1.1078)">
    <g stroke-width=".71989">
     <ellipse cx="5.6123" cy="6.527" rx="1.5507" ry="1.8618" fill="#fff" stop-color="#000000"/>
     <path d="m7.0921 5.9706c-0.20258-0.77674-0.80191-1.3054-1.4798-1.3054-0.67788 0-1.2772 0.52866-1.4798 1.3054 0.92126-0.44759 1.8893-0.57408 2.9596 9.74e-5z" fill="#d7d7d7" stop-color="#000000"/>
     <ellipse cx="5.6123" cy="6.527" rx="1.5507" ry="1.8618" fill="none" stop-color="#000000" stroke="#000" stroke-width=".19085"/>
    </g>
    <g transform="matrix(-1 0 0 1 11.255 0)" stroke-width=".71989">
     <ellipse cx="5.6273" cy="6.6231" rx=".9366" ry=".9673" stop-color="#000000"/>
     <ellipse cx="5.9271" cy="6.337" rx=".2627" ry=".25683" fill="#fff" stop-color="#000000"/>
    </g>
    <g fill="none" stroke="#000" stroke-width=".19085">
     <path d="m4.0812 4.959-0.44634-0.43566" stop-color="#000000"/>
     <path d="m4.8348 4.3708-0.31838-0.53634" stop-color="#000000"/>
     <path d="m5.5541 4.2245-0.00755-0.62367" stop-color="#000000"/>
     <path d="m6.3055 4.3057 0.3053-0.54389" stop-color="#000000"/>
    </g>
   </g>
  </g>
  <g transform="matrix(1 0 0 1 16.933 33.867)">
   <path d="m8.4463 1.9846a7.805 8.362 0 0 0-7.7846 8.3619 7.805 5.0696 0 0 0 7.805 5.0696 7.805 5.0696 0 0 0 7.805-5.0696 7.805 8.362 0 0 0-7.805-8.3619 7.805 8.362 0 0 0-0.02041 0z" fill="url(#linearGradient13234)" stop-color="#000000" stroke="#000" stroke-width=".39686"/>
   <g transform="matrix(1.3913 0 0 1.3868 -1.8672 -.9094)">
    <g stroke-width=".71989">
     <ellipse cx="5.6123" cy="6.527" rx="1.5507" ry="1.8618" fill="#fff" stop-color="#000000"/>
     <path d="m7.0921 5.9706c-0.20258-0.77674-0.80191-1.3054-1.4798-1.3054-0.67788 0-1.2772 0.52866-1.4798 1.3054 0.92126-0.44759 1.8893-0.57408 2.9596 9.74e-5z" fill="#d7d7d7" stop-color="#000000"/>
     <ellipse cx="5.6123" cy="6.527" rx="1.5507" ry="1.8618" fill="none" stop-color="#000000" stroke="#000" stroke-width=".19085"/>
    </g>
    <g stroke-width=".71989">
     <ellipse cx="5.6273" cy="6.6231" rx=".9366" ry=".9673" stop-color="#000000"/>
     <ellipse cx="5.9271" cy="6.337" rx=".2627" ry=".25683" fill="#fff" stop-color="#000000"/>
    </g>
    <path d="m3.7878 5.0711 1.6415-1.5737" fill="none" stop-color="#000000" stroke="#000" stroke-width=".19047"/>
   </g>
   <g transform="matrix(-1.3913 0 0 1.3868 18.76 -.9094)">
    <g stroke-width=".71989">
     <ellipse cx="5.6123" cy="6.527" rx="1.5507" ry="1.8618" fill="#fff" stop-color="#000000"/>
     <path d="m7.0921 5.9706c-0.20258-0.77674-0.80191-1.3054-1.4798-1.3054-0.67788 0-1.2772 0.52866-1.4798 1.3054 0.92126-0.44759 1.8893-0.57408 2.9596 9.74e-5z" fill="#d7d7d7" stop-color="#000000"/>
     <ellipse cx="5.6123" cy="6.527" rx="1.5507" ry="1.8618" fill="none" stop-color="#000000" stroke="#000" stroke-width=".19085"/>
    </g>
    <g transform="matrix(-1 0 0 1 11.255 0)" stroke-width=".71989">
     <ellipse cx="5.6273" cy="6.6231" rx=".9366" ry=".9673" stop-color="#000000"/>
     <ellipse cx="5.9271" cy="6.337" rx=".2627" ry=".25683" fill="#fff" stop-color="#000000"/>
    </g>
    <path d="m3.7878 5.0711 1.6415-1.5737" fill="none" stop-color="#000000" stroke="#000" stroke-width=".19047"/>
   </g>
  </g>
  <g transform="matrix(1 0 0 1 -.0002257 33.867)">
   <path d="m8.4463 1.9846a7.805 8.362 0 0 0-7.7846 8.3619 7.805 5.0696 0 0 0 7.805 5.0696 7.805 5.0696 0 0 0 7.805-5.0696 7.805 8.362 0 0 0-7.805-8.3619 7.805 8.362 0 0 0-0.02041 0z" fill="url(#linearGradient13234)" stop-color="#000000" stroke="#000" stroke-width=".39686"/>
   <g transform="matrix(1.3913 0 0 1.3868 -2.5972 -1.0645)" stroke-width=".71989">
    <ellipse cx="5.6123" cy="6.527" rx="1.5507" ry="1.8618" fill="#fff" stop-color="#000000"/>
    <path d="m7.0921 5.9706c-0.20258-0.77674-0.80191-1.3054-1.4798-1.3054-0.67788 0-1.2772 0.52866-1.4798 1.3054 0.92126-0.44759 1.8893-0.57408 2.9596 9.74e-5z" fill="#d7d7d7" stop-color="#000000"/>
    <ellipse cx="5.6123" cy="6.527" rx="1.5507" ry="1.8618" fill="none" stop-color="#000000" stroke="#000" stroke-width=".19085"/>
    <g>
     <ellipse cx="5.6273" cy="6.6231" rx=".9366" ry=".9673" stop-color="#000000"/>
     <ellipse cx="5.9271" cy="6.337" rx=".2627" ry=".25683" fill="#fff" stop-color="#000000"/>
    </g>
   </g>
   <g transform="matrix(-1.3913 0 0 1.3868 19.531 -1.0645)" stroke-width=".71989">
    <ellipse cx="5.6123" cy="6.527" rx="1.5507" ry="1.8618" fill="#fff" stop-color="#000000"/>
    <path d="m7.0921 5.9706c-0.20258-0.77674-0.80191-1.3054-1.4798-1.3054-0.67788 0-1.2772 0.52866-1.4798 1.3054 0.92126-0.44759 1.8893-0.57408 2.9596 9.74e-5z" fill="#d7d7d7" stop-color="#000000"/>
    <ellipse cx="5.6123" cy="6.527" rx="1.5507" ry="1.8618" fill="none" stop-color="#000000" stroke="#000" stroke-width=".19085"/>
    <g transform="matrix(-1 0 0 1 11.255 0)">
     <ellipse cx="5.6273" cy="6.6231" rx=".9366" ry=".9673" stop-color="#000000"/>
     <ellipse cx="5.9271" cy="6.337" rx=".2627" ry=".25683" fill="#fff" stop-color="#000000"/>
    </g>
   </g>
  </g>
  <g transform="matrix(1 0 0 1 33.866 33.867)">
   <path d="m8.4463 1.9846a7.805 8.362 0 0 0-7.7846 8.3619 7.805 5.0696 0 0 0 7.805 5.0696 7.805 5.0696 0 0 0 7.805-5.0696 7.805 8.362 0 0 0-7.805-8.3619 7.805 8.362 0 0 0-0.02041 0z" fill="url(#linearGradient13234)" stop-color="#000000" stroke="#000" stroke-width=".39686"/>
   <g transform="matrix(1.3913 0 0 1.3868 -2.7193 -.90553)">
    <g stroke-width=".71989">
     <ellipse cx="5.6123" cy="6.527" rx="1.5507" ry="1.8618" fill="#fff" stop-color="#000000"/>
     <path d="m7.0921 5.9706c-0.20258-0.77674-0.80191-1.3054-1.4798-1.3054-0.67788 0-1.2772 0.52866-1.4798 1.3054 0.92126-0.44759 1.8893-0.57408 2.9596 9.74e-5z" fill="#d7d7d7" stop-color="#000000"/>
     <ellipse cx="5.6123" cy="6.527" rx="1.5507" ry="1.8618" fill="none" stop-color="#000000" stroke="#000" stroke-width=".19085"/>
    </g>
    <g stroke-width=".71989">
     <ellipse cx="5.6273" cy="6.6231" rx=".9366" ry=".9673" stop-color="#000000"/>
     <ellipse cx="5.9271" cy="6.337" rx=".2627" ry=".25683" fill="#fff" stop-color="#000000"/>
    </g>
    <path d="m5.7259 3.7012 1.6595 1.2597" fill="none" stop-color="#000000" stroke="#000" stroke-width=".19047"/>
   </g>
   <g transform="matrix(-1.3913 0 0 1.3868 19.612 -.90553)">
    <g stroke-width=".71989">
     <ellipse cx="5.6123" cy="6.527" rx="1.5507" ry="1.8618" fill="#fff" stop-color="#000000"/>
     <path d="m7.0921 5.9706c-0.20258-0.77674-0.80191-1.3054-1.4798-1.3054-0.67788 0-1.2772 0.52866-1.4798 1.3054 0.92126-0.44759 1.8893-0.57408 2.9596 9.74e-5z" fill="#d7d7d7" stop-color="#000000"/>
     <ellipse cx="5.6123" cy="6.527" rx="1.5507" ry="1.8618" fill="none" stop-color="#000000" stroke="#000" stroke-width=".19085"/>
    </g>
    <g stroke-width=".71989">
     <ellipse cx="5.6273" cy="6.6231" rx=".9366" ry=".9673" stop-color="#000000"/>
     <ellipse cx="5.9271" cy="6.337" rx=".2627" ry=".25683" fill="#fff" stop-color="#000000"/>
    </g>
    <path d="m5.7259 3.7012 1.6595 1.2597" fill="none" stop-color="#000000" stroke="#000" stroke-width=".19047"/>
   </g>
  </g>
  <g transform="matrix(1 0 0 1 67.733 33.867)" stroke="#000">
   <path d="m8.4463 1.9846a7.805 8.362 0 0 0-7.7846 8.3619 7.805 5.0696 0 0 0 7.805 5.0696 7.805 5.0696 0 0 0 7.805-5.0696 7.805 8.362 0 0 0-7.805-8.3619 7.805 8.362 0 0 0-0.02041 0z" fill="url(#linearGradient13234)" stop-color="#000000" stroke-width=".39686"/>
   <path d="m3.2219 6.7958 4.3421 0.83743-4.2301 0.58022" fill="none" stop-color="#000000" stroke-width=".52915"/>
   <path d="m13.671 6.7958-4.3421 0.83743 4.2301 0.58022" fill="none" stop-color="#000000" stroke-width=".52915"/>
  </g>
  <g transform="matrix(1 0 0 1 50.8 50.8)">
   <path d="m8.4463 1.9846a7.805 8.362 0 0 0-7.7846 8.3619 7.805 5.0696 0 0 0 7.805 5.0696 7.805 5.0696 0 0 0 7.805-5.0696 7.805 8.362 0 0 0-7.805-8.3619 7.805 8.362 0 0 0-0.02041 0z" fill="url(#linearGradient13662)" stop-color="#000000" stroke="#000" stroke-width=".39686"/>
   <g transform="matrix(1.3913 0 0 1.3868 -2.0657 -1.1078)">
    <g stroke-width=".71989">
     <ellipse cx="5.6123" cy="6.527" rx="1.5507" ry="1.8618" fill="#fff" stop-color="#000000"/>
     <path d="m7.0921 5.9706c-0.20258-0.77674-0.80191-1.3054-1.4798-1.3054-0.67788 0-1.2772 0.52866-1.4798 1.3054 0.92126-0.44759 1.8893-0.57408 2.9596 9.74e-5z" fill="#d7d7d7" stop-color="#000000"/>
     <ellipse cx="5.6123" cy="6.527" rx="1.5507" ry="1.8618" fill="none" stop-color="#000000" stroke="#000" stroke-width=".19085"/>
    </g>
    <g stroke-width=".71989">
     <ellipse cx="5.6273" cy="6.6231" rx=".9366" ry=".9673" stop-color="#000000"/>
     <ellipse cx="5.9271" cy="6.337" rx=".2627" ry=".25683" fill="#fff" stop-color="#000000"/>
    </g>
    <g fill="none" stroke="#000" stroke-width=".19085">
     <path d="m4.0812 4.959-0.44634-0.43566" stop-color="#000000"/>
     <path d="m4.8348 4.3708-0.31838-0.53634" stop-color="#000000"/>
     <path d="m5.5541 4.2245-0.00755-0.62367" stop-color="#000000"/>
     <path d="m6.3055 4.3057 0.3053-0.54389" stop-color="#000000"/>
    </g>
   </g>
   <g transform="matrix(-1.3913 0 0 1.3868 18.958 -1.1078)">
    <g stroke-width=".71989">
     <ellipse cx="5.6123" cy="6.527" rx="1.5507" ry="1.8618" fill="#fff" stop-color="#000000"/>
     <path d="m7.0921 5.9706c-0.20258-0.77674-0.80191-1.3054-1.4798-1.3054-0.67788 0-1.2772 0.52866-1.4798 1.3054 0.92126-0.44759 1.8893-0.57408 2.9596 9.74e-5z" fill="#d7d7d7" stop-color="#000000"/>
     <ellipse cx="5.6123" cy="6.527" rx="1.5507" ry="1.8618" fill="none" stop-color="#000000" stroke="#000" stroke-width=".19085"/>
    </g>
    <g transform="matrix(-1 0 0 1 11.255 0)" stroke-width=".71989">
     <ellipse cx="5.6273" cy="6.6231" rx=".9366" ry=".9673" stop-color="#000000"/>
     <ellipse cx="5.9271" cy="6.337" rx=".2627" ry=".25683" fill="#fff" stop-color="#000000"/>
    </g>
    <g fill="none" stroke="#000" stroke-width=".19085">
     <path d="m4.0812 4.959-0.44634-0.43566" stop-color="#000000"/>
     <path d="m4.8348 4.3708-0.31838-0.53634" stop-color="#000000"/>
     <path d="m5.5541 4.2245-0.00755-0.62367" stop-color="#000000"/>
     <path d="m6.3055 4.3057 0.3053-0.54389" stop-color="#000000"/>
    </g>
   </g>
  </g>
  <g transform="matrix(1 0 0 1 16.933 50.8)">
   <path d="m8.4463 1.9846a7.805 8.362 0 0 0-7.7846 8.3619 7.805 5.0696 0 0 0 7.805 5.0696 7.805 5.0696 0 0 0 7.805-5.0696 7.805 8.362 0 0 0-7.805-8.3619 7.805 8.362 0 0 0-0.02041 0z" fill="url(#linearGradient13662)" stop-color="#000000" stroke="#000" stroke-width=".39686"/>
   <g transform="matrix(1.3913 0 0 1.3868 -1.8672 -.9094)">
    <g stroke-width=".71989">
     <ellipse cx="5.6123" cy="6.527" rx="1.5507" ry="1.8618" fill="#fff" stop-color="#000000"/>
     <path d="m7.0921 5.9706c-0.20258-0.77674-0.80191-1.3054-1.4798-1.3054-0.67788 0-1.2772 0.52866-1.4798 1.3054 0.92126-0.44759 1.8893-0.57408 2.9596 9.74e-5z" fill="#d7d7d7" stop-color="#000000"/>
     <ellipse cx="5.6123" cy="6.527" rx="1.5507" ry="1.8618" fill="none" stop-color="#000000" stroke="#000" stroke-width=".19085"/>
    </g>
    <g stroke-width=".71989">
     <ellipse cx="5.6273" cy="6.6231" rx=".9366" ry=".9673" stop-color="#000000"/>
     <ellipse cx="5.9271" cy="6.337" rx=".2627" ry=".25683" fill="#fff" stop-color="#000000"/>
    </g>
    <path d="m3.7878 5.0711 1.6415-1.5737" fill="none" stop-color="#000000" stroke="#000" stroke-width=".19047"/>
   </g>
   <g transform="matrix(-1.3913 0 0 1.3868 18.76 -.9094)">
    <g stroke-width=".71989">
     <ellipse cx="5.6123" cy="6.527" rx="1.5507" ry="1.8618" fill="#fff" stop-color="#000000"/>
     <path d="m7.0921 5.9706c-0.20258-0.77674-0.80191-1.3054-1.4798-1.3054-0.67788 0-1.2772 0.52866-1.4798 1.3054 0.92126-0.44759 1.8893-0.57408 2.9596 9.74e-5z" fill="#d7d7d7" stop-color="#000000"/>
     <ellipse cx="5.6123" cy="6.527" rx="1.5507" ry="1.8618" fill="none" stop-color="#000000" stroke="#000" stroke-width=".19085"/>
    </g>
    <g transform="matrix(-1 0 0 1 11.255 0)" stroke-width=".71989">
     <ellipse cx="5.6273" cy="6.6231" rx=".9366" ry=".9673" stop-color="#000000"/>
     <ellipse cx="5.9271" cy="6.337" rx=".2627" ry=".25683" fill="#fff" stop-color="#000000"/>
    </g>
    <path d="m3.7878 5.0711 1.6415-1.5737" fill="none" stop-color="#000000" stroke="#000" stroke-width=".19047"/>
   </g>
  </g>
  <g transform="matrix(1 0 0 1 -.0002257 50.8)">
   <path d="m8.4463 1.9846a7.805 8.362 0 0 0-7.7846 8.3619 7.805 5.0696 0 0 0 7.805 5.0696 7.805 5.0696 0 0 0 7.805-5.0696 7.805 8.362 0 0 0-7.805-8.3619 7.805 8.362 0 0 0-0.02041 0z" fill="url(#linearGradient13662)" stop-color="#000000" stroke="#000" stroke-width=".39686"/>
   <g transform="matrix(1.3913 0 0 1.3868 -2.5972 -1.0645)" stroke-width=".71989">
    <ellipse cx="5.6123" cy="6.527" rx="1.5507" ry="1.8618" fill="#fff" stop-color="#000000"/>
    <path d="m7.0921 5.9706c-0.20258-0.77674-0.80191-1.3054-1.4798-1.3054-0.67788 0-1.2772 0.52866-1.4798 1.3054 0.92126-0.44759 1.8893-0.57408 2.9596 9.74e-5z" fill="#d7d7d7" stop-color="#000000"/>
    <ellipse cx="5.6123" cy="6.527" rx="1.5507" ry="1.8618" fill="none" stop-color="#000000" stroke="#000" stroke-width=".19085"/>
    <g>
     <ellipse cx="5.6273" cy="6.6231" rx=".9366" ry=".9673" stop-color="#000000"/>
     <ellipse cx="5.9271" cy="6.337" rx=".2627" ry=".25683" fill="#fff" stop-color="#000000"/>
    </g>
   </g>
   <g transform="matrix(-1.3913 0 0 1.3868 19.531 -1.0645)" stroke-width=".71989">
    <ellipse cx="5.6123" cy="6.527" rx="1.5507" ry="1.8618" fill="#fff" stop-color="#000000"/>
    <path d="m7.0921 5.9706c-0.20258-0.77674-0.80191-1.3054-1.4798-1.3054-0.67788 0-1.2772 0.52866-1.4798 1.3054 0.92126-0.44759 1.8893-0.57408 2.9596 9.74e-5z" fill="#d7d7d7" stop-color="#000000"/>
    <ellipse cx="5.6123" cy="6.527" rx="1.5507" ry="1.8618" fill="none" stop-color="#000000" stroke="#000" stroke-width=".19085"/>
    <g transform="matrix(-1 0 0 1 11.255 0)">
     <ellipse cx="5.6273" cy="6.6231" rx=".9366" ry=".9673" stop-color="#000000"/>
     <ellipse cx="5.9271" cy="6.337" rx=".2627" ry=".25683" fill="#fff" stop-color="#000000"/>
    </g>
   </g>
  </g>
  <g transform="matrix(1 0 0 1 33.866 50.8)">
   <path d="m8.4463 1.9846a7.805 8.362 0 0 0-7.7846 8.3619 7.805 5.0696 0 0 0 7.805 5.0696 7.805 5.0696 0 0 0 7.805-5.0696 7.805 8.362 0 0 0-7.805-8.3619 7.805 8.362 0 0 0-0.02041 0z" fill="url(#linearGradient13662)" stop-color="#000000" stroke="#000" stroke-width=".39686"/>
   <g transform="matrix(1.3913 0 0 1.3868 -2.7193 -.90553)">
    <g stroke-width=".71989">
     <ellipse cx="5.6123" cy="6.527" rx="1.5507" ry="1.8618" fill="#fff" stop-color="#000000"/>
     <path d="m7.0921 5.9706c-0.20258-0.77674-0.80191-1.3054-1.4798-1.3054-0.67788 0-1.2772 0.52866-1.4798 1.3054 0.92126-0.44759 1.8893-0.57408 2.9596 9.74e-5z" fill="#d7d7d7" stop-color="#000000"/>
     <ellipse cx="5.6123" cy="6.527" rx="1.5507" ry="1.8618" fill="none" stop-color="#000000" stroke="#000" stroke-width=".19085"/>
    </g>
    <g stroke-width=".71989">
     <ellipse cx="5.6273" cy="6.6231" rx=".9366" ry=".9673" stop-color="#000000"/>
     <ellipse cx="5.9271" cy="6.337" rx=".2627" ry=".25683" fill="#fff" stop-color="#000000"/>
    </g>
    <path d="m5.7259 3.7012 1.6595 1.2597" fill="none" stop-color="#000000" stroke="#000" stroke-width=".19047"/>
   </g>
   <g transform="matrix(-1.3913 0 0 1.3868 19.612 -.90553)">
    <g stroke-width=".71989">
     <ellipse cx="5.6123" cy="6.527" rx="1.5507" ry="1.8618" fill="#fff" stop-color="#000000"/>
     <path d="m7.0921 5.9706c-0.20258-0.77674-0.80191-1.3054-1.4798-1.3054-0.67788 0-1.2772 0.52866-1.4798 1.3054 0.92126-0.44759 1.8893-0.57408 2.9596 9.74e-5z" fill="#d7d7d7" stop-color="#000000"/>
     <ellipse cx="5.6123" cy="6.527" rx="1.5507" ry="1.8618" fill="none" stop-color="#000000" stroke="#000" stroke-width=".19085"/>
    </g>
    <g stroke-width=".71989">
     <ellipse cx="5.6273" cy="6.6231" rx=".9366" ry=".9673" stop-color="#000000"/>
     <ellipse cx="5.9271" cy="6.337" rx=".2627" ry=".25683" fill="#fff" stop-color="#000000"/>
    </g>
    <path d="m5.7259 3.7012 1.6595 1.2597" fill="none" stop-color="#000000" stroke="#000" stroke-width=".19047"/>
   </g>
  </g>
  <g transform="matrix(1 0 0 1 67.733 50.8)" stroke="#000">
   <path d="m8.4463 1.9846a7.805 8.362 0 0 0-7.7846 8.3619 7.805 5.0696 0 0 0 7.805 5.0696 7.805 5.0696 0 0 0 7.805-5.0696 7.805 8.362 0 0 0-7.805-8.3619 7.805 8.362 0 0 0-0.02041 0z" fill="url(#linearGradient13662)" stop-color="#000000" stroke-width=".39686"/>
   <path d="m3.2219 6.7958 4.3421 0.83743-4.2301 0.58022" fill="none" stop-color="#000000" stroke-width=".52915"/>
   <path d="m13.671 6.7958-4.3421 0.83743 4.2301 0.58022" fill="none" stop-color="#000000" stroke-width=".52915"/>
  </g>
 </g>
 <g>
  <g transform="translate(0 16.933)">
   <ellipse cx="110.07" cy="8.4667" rx="6.1516" ry="6.1516" fill="url(#linearGradient10316)" stop-color="#000000" stroke="#000" stroke-width=".39687"/>
   <g transform="matrix(.35903 0 0 .35429 99.278 -28.508)" stroke="#890400" stroke-width="1.1128">
    <path d="m35.603 116.54c5.986-3.2959 6.7504-11.619 3.0224-17.554 1.2856 4.1572-3.5275 5.528-3.5275 5.528 0.43291-4.624 0.04613-10.709-9.7103-13.113 0 0 3.0625 4.9817 0.6133 10.321-1.3985-4.4532-4.833-4.9504-4.833-4.9504s3.1644 3.87 1.0308 8.5466c-1.4699 3.2218-2.0253 9.5668 2.9279 11.826 1.342 0.6122 3.0883 0.92451 5.3303 0.79358 2.0152-0.11767 3.7273-0.61646 5.1461-1.3976" fill="url(#linearGradient10354)" stop-color="#000000"/>
    <path d="m31.159 111.31c-1.0561-0.52569-1.2658-3.5509-1.0527-5.3369-2.8619 0.9944-6.1953 7.5092-4.9802 11.171 1.342 0.6122 3.0883 0.92451 5.3303 0.79358 2.0152-0.11767 3.7273-0.61646 5.1461-1.3976 0.10594-4.8443-3.1226-4.5725-4.4435-5.23z" fill="url(#linearGradient10362)" stop-color="#000000"/>
   </g>
  </g>
  <g transform="matrix(.62358 0 0 .62734 47.38 20.619)" fill="none" stroke="#f00" stroke-width=".99568">
   <g transform="matrix(.64446 0 0 .6302 108.14 -58.481)" filter="url(#filter10454)">
    <path d="m35.603 116.54c5.986-3.2959 6.7504-11.619 3.0224-17.554 1.2856 4.1572-3.5275 5.528-3.5275 5.528 0.43291-4.624 0.04613-10.709-9.7103-13.113 0 0 3.0625 4.9817 0.6133 10.321-1.3985-4.4532-4.833-4.9504-4.833-4.9504s3.1644 3.87 1.0308 8.5466c-1.4699 3.2218-2.0253 9.5668 2.9279 11.826 1.342 0.6122 3.0883 0.92451 5.3303 0.79358 2.0152-0.11767 3.7273-0.61646 5.1461-1.3976" stop-color="#000000"/>
    <path d="m31.159 111.31c-1.0561-0.52569-1.2658-3.5509-1.0527-5.3369-2.8619 0.9944-6.1953 7.5092-4.9802 11.171 1.342 0.6122 3.0883 0.92451 5.3303 0.79358 2.0152-0.11767 3.7273-0.61646 5.1461-1.3976 0.10594-4.8443-3.1226-4.5725-4.4435-5.23z" stop-color="#000000"/>
   </g>
   <g transform="matrix(.64446 0 0 .6302 108.14 -58.481)">
    <path d="m35.603 116.54c5.986-3.2959 6.7504-11.619 3.0224-17.554 1.2856 4.1572-3.5275 5.528-3.5275 5.528 0.43291-4.624 0.04613-10.709-9.7103-13.113 0 0 3.0625 4.9817 0.6133 10.321-1.3985-4.4532-4.833-4.9504-4.833-4.9504s3.1644 3.87 1.0308 8.5466c-1.4699 3.2218-2.0253 9.5668 2.9279 11.826 1.342 0.6122 3.0883 0.92451 5.3303 0.79358 2.0152-0.11767 3.7273-0.61646 5.1461-1.3976" stop-color="#000000"/>
    <path d="m31.159 111.31c-1.0561-0.52569-1.2658-3.5509-1.0527-5.3369-2.8619 0.9944-6.1953 7.5092-4.9802 11.171 1.342 0.6122 3.0883 0.92451 5.3303 0.79358 2.0152-0.11767 3.7273-0.61646 5.1461-1.3976 0.10594-4.8443-3.1226-4.5725-4.4435-5.23z" stop-color="#000000"/>
   </g>
  </g>
  <ellipse cx="110.07" cy="8.4667" rx="6.1516" ry="6.1516" fill="url(#linearGradient10316)" stop-color="#000000" stroke="#000" stroke-width=".39687"/>
  <g transform="matrix(.15027 -.096433 .093902 .15432 74.584 4.8859)" stroke-width="5.5688">
   <g>
    <path d="m154.73 136.12h8.1946v13.321h-8.1946z" fill="#d2a024" stop-color="#000000" stroke="#000" stroke-width="1.4734"/>
    <path d="m163.66 132.9-0.33798-19.189s0.71308-9.7582-4.4999-19.55c-5.213 9.7914-4.4999 19.55-4.4999 19.55l-0.338 19.189z" fill="#7b7b7b" stop-color="#000000"/>
    <path d="m156.56 99.346c0.59073-1.6908 1.3326-3.4381 2.2634-5.1865 5.213 9.7914 4.4999 19.55 4.4999 19.55l0.33798 19.189h-6.8792z" fill="#a5a5a5" stop-color="#000000"/>
   </g>
   <path d="m163.66 132.89-0.33798-19.189s0.71308-9.7582-4.4999-19.55c-5.213 9.7914-4.4999 19.55-4.4999 19.55l-0.338 19.189z" fill="none" stop-color="#000000" stroke="#000" stroke-width="1.4734"/>
   <path d="m169.47 137.45 3.7041-2.2883-1.8222-5.0618-3.0967 2.3808h-18.856l-3.0967-2.3808-1.8222 5.0618 3.7041 2.2883h21.285z" fill="#ffc93f" stop-color="#000000" stroke="#000" stroke-width="1.4734"/>
  </g>
  <g fill="none" stroke="#fff" stroke-width="1.1371">
   <g transform="matrix(.19516 -.12467 .12195 .19952 80.61 3.6159)" filter="url(#filter14219)">
    <path d="m163.65 132.48-0.33077-18.78s0.71308-9.7582-4.4999-19.55c-5.213 9.7914-4.4999 19.55-4.4999 19.55l-0.33079 18.78" stop-color="#000000"/>
    <path d="m169.47 137.45 3.7041-2.2883-1.8222-5.0618-3.0967 2.3808h-18.856l-3.0967-2.3808-1.8222 5.0618 3.7041 2.2883h21.285z" stop-color="#000000"/>
    <path d="m154.73 137.45 1e-5 11.99 8.1946 4e-5v-11.99" stop-color="#000000"/>
   </g>
   <g transform="matrix(.19516 -.12467 .12195 .19952 80.61 3.6159)">
    <path d="m163.65 132.48-0.33077-18.78s0.71308-9.7582-4.4999-19.55c-5.213 9.7914-4.4999 19.55-4.4999 19.55l-0.33079 18.78" stop-color="#000000"/>
    <path d="m169.47 137.45 3.7041-2.2883-1.8222-5.0618-3.0967 2.3808h-18.856l-3.0967-2.3808-1.8222 5.0618 3.7041 2.2883h21.285z" stop-color="#000000"/>
    <path d="m154.73 137.45 1e-5 11.99 8.1946 4e-5v-11.99" stop-color="#000000"/>
   </g>
  </g>
  <ellipse cx="110.07" cy="42.333" rx="6.1516" ry="6.1516" fill="url(#linearGradient11363)" stop-color="#000000" stroke="#000" stroke-width=".39687"/>
  <g transform="matrix(1.177 0 0 1.1765 -19.481 -7.4518)" stroke-width=".84979">
   <path d="m113.57 41.478c0-1.6294-1.5695-2.9503-3.5056-2.9503-1.9361 0-3.5056 1.3209-3.5056 2.9503 0 0.95061 0.54425 1.843 1.4628 2.3936l-0.43917 2.0249h4.9639l-0.4391-2.0249c0.91859-0.55065 1.4628-1.443 1.4628-2.3936z" fill-opacity=".34878" stop-color="#000000" stroke="#109924" stroke-width=".33726"/>
   <path d="m109.42 40.972c0.0127 0.11587 7.5e-4 0.23311-0.0354 0.34396-0.1407 0.4324-0.60579 0.66903-1.0388 0.52854s-0.67-0.60492-0.5293-1.0373c0.0361-0.11086 0.0953-0.21281 0.17381-0.2991z" fill="#109924" stop-color="#000000"/>
   <path d="m110.71 40.972c-0.0127 0.11587-7.5e-4 0.23311 0.0355 0.34396 0.14069 0.4324 0.60578 0.66903 1.0388 0.52854 0.43302-0.14049 0.66999-0.60492 0.5293-1.0373-0.0361-0.11086-0.0953-0.21281-0.17382-0.2991z" fill="#109924" stop-color="#000000"/>
   <g fill="none" stroke="#109924" stroke-width=".33726">
    <path d="m108.83 45.897v-0.93684" stop-color="#000000"/>
    <path d="m109.66 45.897v-0.93684" stop-color="#000000"/>
    <path d="m110.48 45.897v-0.93684" stop-color="#000000"/>
    <path d="m111.3 45.897v-0.93684" stop-color="#000000"/>
    <path d="m109.54 43.874 0.24306-0.94301" stop-color="#000000"/>
    <path d="m110.59 43.874-0.24307-0.94301" stop-color="#000000"/>
   </g>
  </g>
  <g fill="none" stroke="#10a124" stroke-width=".28779">
   <g transform="matrix(1.3795 0 0 1.3785 -24.839 -15.933)">
    <path d="m113.57 41.478c0-1.6294-1.5695-2.9503-3.5056-2.9503-1.9361 0-3.5056 1.3209-3.5056 2.9503 0 0.95061 0.54425 1.843 1.4628 2.3936l-0.43917 2.0249h4.9639l-0.4391-2.0249c0.91859-0.55065 1.4628-1.443 1.4628-2.3936z" stop-color="#000000"/>
    <path d="m109.42 40.972c0.0127 0.11587 7.5e-4 0.23311-0.0354 0.34396-0.1407 0.4324-0.60579 0.66903-1.0388 0.52854s-0.67-0.60492-0.5293-1.0373c0.0361-0.11086 0.0953-0.21281 0.17381-0.2991z" stop-color="#000000"/>
    <path d="m110.71 40.972c-0.0127 0.11587-7.5e-4 0.23311 0.0355 0.34396 0.14069 0.4324 0.60578 0.66903 1.0388 0.52854 0.43302-0.14049 0.66999-0.60492 0.5293-1.0373-0.0361-0.11086-0.0953-0.21281-0.17382-0.2991z" stop-color="#000000"/>
    <path d="m108.83 45.897v-0.93684" stop-color="#000000"/>
    <path d="m109.66 45.897v-0.93684" stop-color="#000000"/>
    <path d="m110.48 45.897v-0.93684" stop-color="#000000"/>
    <path d="m111.3 45.897v-0.93684" stop-color="#000000"/>
    <path d="m109.54 43.874 0.24306-0.94301" stop-color="#000000"/>
    <path d="m110.59 43.874-0.24307-0.94301" stop-color="#000000"/>
   </g>
   <g transform="matrix(1.3795 0 0 1.3785 -24.839 -15.933)" filter="url(#filter11900)">
    <path d="m113.57 41.478c0-1.6294-1.5695-2.9503-3.5056-2.9503-1.9361 0-3.5056 1.3209-3.5056 2.9503 0 0.95061 0.54425 1.843 1.4628 2.3936l-0.43917 2.0249h4.9639l-0.4391-2.0249c0.91859-0.55065 1.4628-1.443 1.4628-2.3936z" stop-color="#000000"/>
    <path d="m109.42 40.972c0.0127 0.11587 7.5e-4 0.23311-0.0354 0.34396-0.1407 0.4324-0.60579 0.66903-1.0388 0.52854s-0.67-0.60492-0.5293-1.0373c0.0361-0.11086 0.0953-0.21281 0.17381-0.2991z" stop-color="#000000"/>
    <path d="m110.71 40.972c-0.0127 0.11587-7.5e-4 0.23311 0.0355 0.34396 0.14069 0.4324 0.60578 0.66903 1.0388 0.52854 0.43302-0.14049 0.66999-0.60492 0.5293-1.0373-0.0361-0.11086-0.0953-0.21281-0.17382-0.2991z" stop-color="#000000"/>
    <path d="m108.83 45.897v-0.93684" stop-color="#000000"/>
    <path d="m109.66 45.897v-0.93684" stop-color="#000000"/>
    <path d="m110.48 45.897v-0.93684" stop-color="#000000"/>
    <path d="m111.3 45.897v-0.93684" stop-color="#000000"/>
    <path d="m109.54 43.874 0.24306-0.94301" stop-color="#000000"/>
    <path d="m110.59 43.874-0.24307-0.94301" stop-color="#000000"/>
   </g>
  </g>
  <g transform="translate(0 16.933)">
   <ellipse cx="110.07" cy="42.333" rx="6.1516" ry="6.1516" fill="url(#linearGradient11363)" stop-color="#000000" stroke="#000" stroke-width=".39687"/>
  </g>
  <path d="m105.64 58.079c-0.0439-1.3047 0.99178-2.3639 2.2152-2.3639 1.2234 0 2.2152 1.0584 2.2152 2.3639 0-1.3056 0.9918-2.3639 2.2152-2.3639 1.2234 0 2.259 1.0592 2.2152 2.3639-0.0772 2.3043-2.4947 2.5732-4.4304 5.707-1.9357-3.1338-4.3531-3.4027-4.4304-5.707z" fill="url(#linearGradient14156)" stop-color="#000000" stroke="#a30025" stroke-linecap="square" stroke-width=".39688"/>
  <g fill="none" stroke="#ff0098" stroke-linecap="square" stroke-width=".39688">
   <path d="m121.58 57.332c-0.0537-1.5974 1.2136-2.8941 2.7106-2.8941 1.497 0 2.7106 1.2957 2.7106 2.8941 0-1.5984 1.2136-2.8941 2.7106-2.8941 1.497 0 2.7642 1.2968 2.7106 2.8941-0.0945 2.8211-3.0526 3.1503-5.4212 6.987-2.3686-3.8367-5.3266-4.1659-5.4212-6.987z" stop-color="#000000"/>
   <path d="m121.58 57.332c-0.0537-1.5974 1.2136-2.8941 2.7106-2.8941 1.497 0 2.7106 1.2957 2.7106 2.8941 0-1.5984 1.2136-2.8941 2.7106-2.8941 1.497 0 2.7642 1.2968 2.7106 2.8941-0.0945 2.8211-3.0526 3.1503-5.4212 6.987-2.3686-3.8367-5.3266-4.1659-5.4212-6.987z" filter="url(#filter11900)" stop-color="#000000"/>
  </g>
 </g>
 <g>
  <g>
   <ellipse cx="194.73" cy="13.891" rx="7.5659" ry="1.9844" stop-color="#000000"/>
   <ellipse cx="211.67" cy="14.949" rx="4.9909" ry="1.4904" stop-color="#000000"/>
   <path d="m191.59 24.04c1.4729-0.80025 1.661-2.821 0.74368-4.2623 0.31633 1.0094-0.86795 1.3422-0.86795 1.3422 0.10652-1.1227 0.0114-2.6002-2.3893-3.1839 0 0 0.75354 1.2096 0.1509 2.506-0.34411-1.0813-1.1892-1.202-1.1892-1.202s0.7786 0.93965 0.25363 2.0751c-0.36166 0.78227-0.49834 2.3228 0.72041 2.8715 0.3302 0.14864 0.75989 0.22447 1.3116 0.19268 0.49584-0.0286 0.91712-0.14968 1.2662-0.33935" fill="#ff2e00" stop-color="#000000"/>
   <path d="m199.67 23.077c0.81596-0.44333 0.92016-1.5628 0.412-2.3612 0.17524 0.55919-0.48084 0.74357-0.48084 0.74357 0.059-0.62198 6e-3 -1.4405-1.3236-1.7639 0 0 0.41745 0.67009 0.0836 1.3883-0.19064-0.59901-0.6588-0.66588-0.6588-0.66588s0.43134 0.52056 0.14051 1.1496c-0.20035 0.43336-0.27607 1.2868 0.3991 1.5908 0.18293 0.0824 0.42097 0.12435 0.72658 0.10674 0.27469-0.0158 0.50808-0.0829 0.70147-0.188" fill="#ff2e00" stop-color="#000000"/>
   <path d="m190.29 26.641c-1.6322 0-2.9552 1.1126-2.9552 2.4853 0 0.80082 0.45885 1.5525 1.2332 2.0164l-0.37043 1.7059h0.89055v-0.78886h0.32242v0.78886h0.37106v-0.78886h0.32338v0.78886h0.37011v-0.78886h0.32338v0.78886h0.37011v-0.78886h0.32337v0.78886h0.89023l-0.37011-1.7059c0.77439-0.46389 1.2332-1.2155 1.2332-2.0164 0-1.3727-1.323-2.4853-2.9552-2.4853zm-1.7479 1.6677 1.2054 0.39064c0.0107 0.0976 4.3e-4 0.19652-0.03 0.2899-0.11862 0.36427-0.51066 0.56363-0.8757 0.44528-0.36505-0.11836-0.56484-0.50955-0.44622-0.87381 0.0304-0.0934 0.0803-0.17931 0.14653-0.25201zm3.4959 0c0.0662 0.0727 0.11609 0.15862 0.14652 0.25201 0.11861 0.36426-0.0812 0.75545-0.44622 0.87381-0.36505 0.11835-0.75709-0.081-0.8757-0.44528-0.0306-0.0934-0.0407-0.19229-0.03-0.2899zm-2.1095 1.8351 0.32937 0.085-0.0429 0.16359-0.20526 0.79485-0.0417 0.16453-0.32937-0.0846 0.0429-0.16484 0.20526-0.79486zm0.72317 0 0.042 0.16359 0.20527 0.79485 0.0417 0.16485-0.32812 0.0846-0.0429-0.16453-0.20432-0.79486-0.043-0.16358z" fill="#1c6a2d" stop-color="#000000"/>
   <path d="m199.08 28.499c-0.74182 0-1.3432 0.5057-1.3432 1.1296 0 0.36398 0.20855 0.7056 0.56049 0.91644l-0.16836 0.77534h0.40475v-0.35853h0.14654v0.35853h0.16865v-0.35853h0.14697v0.35853h0.16822v-0.35853h0.14697v0.35853h0.16822v-0.35853h0.14697v0.35853h0.40461l-0.16822-0.77534c0.35197-0.21084 0.56049-0.55247 0.56049-0.91644 0-0.62387-0.60133-1.1296-1.3432-1.1296zm-0.79443 0.75798 0.54785 0.17754c5e-3 0.0444 1.9e-4 0.0893-0.0136 0.13176-0.0539 0.16556-0.2321 0.25617-0.39801 0.20238-0.16591-0.0538-0.25672-0.23159-0.20281-0.39715 0.0138-0.0425 0.0365-0.0815 0.0666-0.11453zm1.5889 0c0.0301 0.033 0.0528 0.0721 0.0666 0.11453 0.0539 0.16556-0.0369 0.34335-0.2028 0.39715-0.16592 0.0538-0.3441-0.0368-0.39801-0.20238-0.0139-0.0424-0.0185-0.0874-0.0136-0.13176zm-0.95877 0.83404 0.1497 0.0386-0.0195 0.0744-0.0933 0.36127-0.0189 0.0748-0.1497-0.0385 0.0195-0.0749 0.0933-0.36127zm0.32868 0 0.0191 0.0743 0.0933 0.36127 0.019 0.0749-0.14913 0.0385-0.0195-0.0748-0.0929-0.36127-0.0195-0.0743z" fill="#1c6a2d" stop-color="#000000"/>
   <path d="m204.59 20.251c-0.0283-0.84223 0.63987-1.526 1.4292-1.526 0.78933 0 1.4292 0.6832 1.4292 1.526 0-0.84276 0.63988-1.526 1.4292-1.526 0.78933 0 1.4574 0.68373 1.4292 1.526-0.0498 1.4875-1.6095 1.661-2.8584 3.684-1.2489-2.023-2.8085-2.1965-2.8584-3.684z" fill="#ff0087" stop-color="#000000"/>
   <path d="m214.2 20.953c-0.018-0.53543 0.40678-0.97009 0.90857-0.97009 0.5018 0 0.90858 0.43433 0.90858 0.97009 0-0.53576 0.40678-0.97009 0.90857-0.97009s0.92654 0.43466 0.90858 0.97009c-0.0317 0.94563-1.0232 1.056-1.8172 2.342-0.79394-1.286-1.7854-1.3964-1.8172-2.342z" fill="#ff0087" stop-color="#000000"/>
   <path d="m229.4 9.6569c-1.0415-0.0096-2.0598 0.5828-2.5662 1.493-0.69277-0.65179-1.9041-0.56404-2.4958 0.18059-0.29136 0.34434-0.43959 0.80509-0.40316 1.2547-0.51636 0.16478-0.96144 0.53842-1.2132 1.0184-0.90364-0.10026-1.7728 0.68149-1.7681 1.5908-0.0453 0.89846 0.76838 1.7134 1.6667 1.6712h11.739c0.11807-0.11364 0.40268-0.11832 0.56238-0.24314 0.93326-0.47922 1.3197-1.7463 0.81266-2.6648-0.44617-0.90905-1.6373-1.332-2.5569-0.90802-0.24301-0.2454-0.60677-0.40308-0.83145-0.62703-0.0609-1.3789-1.2115-2.6004-2.5843-2.7435-0.11996-0.01482-0.24084-0.02226-0.36171-0.02225z" fill="#fff" stop-color="#000000"/>
   <g transform="matrix(.37782 0 0 .37782 210.15 -30.441)" fill="#fff">
    <rect transform="scale(-1,1)" x="-106.93" y="119.05" width="19.779" height="6.1572" stop-color="#000000"/>
    <circle transform="scale(-1,1)" cx="-106.93" cy="120.74" r="4.4708" stop-color="#000000"/>
    <circle transform="scale(-1,1)" cx="-101.28" cy="117.94" r="3.6275" stop-color="#000000"/>
    <circle transform="scale(-1,1)" cx="-92.84" cy="115.95" r="6.9682" stop-color="#000000"/>
    <circle transform="scale(-1,1)" cx="-87.154" cy="120.22" r="4.9965" stop-color="#000000"/>
   </g>
  </g>
  <g fill="none" stroke-linecap="square" stroke-width=".26458">
   <path d="m227.51 19.347-6.2282 3.5958m6.2282 0.04387-6.2282-3.5958m3.0981-1.8637v7.2794" stop-color="#000000" stroke="#0f0"/>
   <path d="m235.98 19.347-6.2282 3.5958m6.2282 0.04387-6.2282-3.5958m3.0981-1.8637v7.2794" stop-color="#000000" stroke="#f00"/>
   <path d="m244.45 19.347-6.2282 3.5958m6.2282 0.04387-6.2282-3.5958m3.0981-1.8637v7.2794" stop-color="#000000" stroke="#ff0"/>
   <path d="m252.91 19.347-6.2282 3.5958m6.2282 0.04387-6.2282-3.5958m3.0981-1.8637v7.2794" stop-color="#000000" stroke="#0049ff"/>
  </g>
 </g>
</svg>
